<svg width="35" height="36" viewBox="0 0 35 36" fill="none" xmlns="http://www.w3.org/2000/svg">
<path d="M33.8656 7.56477C33.1861 5.77089 31.8928 4.15798 30.19 3.24358C28.4363 2.30166 26.4202 2.11962 24.4993 2.60328C22.6948 3.05837 21.0226 4.15163 19.959 5.68834C19.8849 5.79629 19.814 5.90636 19.7452 6.01748C19.4288 6.26004 19.128 6.52232 18.8446 6.80277C18.725 6.56464 18.6001 6.32863 18.4699 6.09474C17.5238 4.39611 16.2696 2.84776 14.6514 1.74815C13.1094 0.700392 11.2626 0.0516304 9.38725 0.0960806C7.75318 0.134181 6.15403 0.79035 4.98456 1.93336C4.66177 2.24874 4.37178 2.59164 4.11143 2.95571C3.32191 3.64786 2.65516 4.48501 2.13657 5.38989C1.24651 6.94247 0.771314 8.69402 0.644313 10.472C0.519429 12.2193 0.768139 14.0026 1.34599 15.6547C1.94184 17.3586 2.89646 18.9345 4.15906 20.2257C4.89249 20.976 5.71587 21.6343 6.54984 22.2704C6.73717 22.4133 6.92555 22.5551 7.115 22.6969C7.20178 22.8345 7.28962 22.9721 7.37852 23.1075C8.55645 24.9003 10.0201 26.635 11.8743 27.7589C11.8849 27.7843 11.8966 27.8087 11.9072 27.8341C11.9918 28.0457 12.067 28.2616 12.1294 28.4807C12.159 28.5855 12.1855 28.6903 12.2098 28.7961C12.2162 28.8225 12.2183 28.8321 12.2194 28.8342C12.2204 28.8395 12.2215 28.849 12.2257 28.8691C12.2384 28.94 12.2511 29.0109 12.2606 29.0829C12.2934 29.3062 12.3114 29.5306 12.3146 29.756C12.3157 29.865 12.3146 29.973 12.3083 30.082C12.3072 30.1095 12.3051 30.1359 12.303 30.1635C12.304 30.1518 12.3083 30.1042 12.303 30.1645C12.2966 30.2375 12.2871 30.3106 12.2765 30.3836C12.2418 30.6174 12.1916 30.8486 12.1262 31.0758C11.9908 31.5467 11.8172 31.9584 11.632 32.3648C11.4182 32.8337 11.1959 33.2983 10.9991 33.7745C10.8171 34.2148 10.6647 34.6667 10.5747 35.1345C10.4996 35.525 10.9388 35.9864 11.3441 35.8975C12.3474 35.6785 13.2714 35.2699 14.117 34.6847C14.9435 34.1132 15.66 33.3999 16.3225 32.6484C17.6772 31.1107 18.7779 29.3708 20.0278 27.7505C20.2289 27.634 20.4268 27.5155 20.6226 27.3949C21.5772 26.8106 22.4905 26.1598 23.3806 25.4824C25.4158 23.932 27.3441 22.227 29.1358 20.4003C29.9825 19.5367 30.8038 18.6445 31.5637 17.7026C32.1563 16.9681 32.7247 16.2008 33.1692 15.3668C33.5618 14.6313 33.7968 13.8439 33.8963 13.0396C34.5831 11.2891 34.5302 9.31844 33.8656 7.56477ZM7.35524 21.0078C7.2122 20.7469 7.07354 20.4837 6.93931 20.2183C6.87793 20.0976 6.8176 19.977 6.75834 19.8553C6.74035 19.8193 6.72235 19.7822 6.70542 19.7462C6.70119 19.7378 6.64298 19.6171 6.68531 19.7039C6.72765 19.7918 6.66944 19.67 6.6652 19.6616C6.64192 19.6129 6.61864 19.5642 6.59641 19.5145C6.38014 19.0503 6.17442 18.5814 5.9794 18.1079C6.60805 19.0372 7.26952 19.9463 7.92569 20.8564C8.54164 21.7105 9.15124 22.5709 9.72486 23.4536C9.16288 22.9826 8.5755 22.5392 7.98707 22.1C7.76693 21.7412 7.55738 21.3771 7.35524 21.0078ZM17.9757 10.2667C17.9788 10.2593 18.0117 10.1842 18.0138 10.1789C18.054 10.09 18.0963 10.0011 18.1387 9.91323C18.163 9.86348 18.1895 9.8148 18.2149 9.76506C18.1969 9.81374 18.1789 9.86137 18.1609 9.91005C18.1175 10.0222 18.073 10.1344 18.0275 10.2466C17.9651 10.3969 17.9714 10.3842 17.8963 10.5461C17.8593 10.6265 17.819 10.7059 17.7799 10.7853C17.8275 10.6445 17.8783 10.5059 17.9333 10.3694C17.9471 10.3344 17.9619 10.3006 17.9757 10.2667ZM30.1677 6.38155C30.1709 6.39108 30.1847 6.41013 30.2058 6.42812C30.2333 6.45246 30.2619 6.47574 30.2894 6.49903C30.3561 6.55618 30.4217 6.61544 30.4863 6.67577C30.7234 6.89696 30.9467 7.13403 31.153 7.3838C31.1573 7.38909 31.2134 7.46 31.207 7.45153C31.2134 7.46 31.2187 7.46635 31.2197 7.4674C31.2652 7.52667 31.3097 7.58594 31.3531 7.64521C31.5451 7.91007 31.72 8.18685 31.8769 8.47389C31.9129 8.5395 31.9479 8.60512 31.9817 8.67179C32.0018 8.71201 32.0219 8.75223 32.042 8.79139C32.0431 8.79245 32.0431 8.7935 32.0442 8.79562C32.0463 8.80091 32.0495 8.80832 32.0537 8.81679C32.1892 9.1163 32.3119 9.42004 32.4135 9.73331C32.459 9.87512 32.5014 10.0191 32.5395 10.163C32.5617 10.2498 32.5829 10.3366 32.603 10.4233C32.6093 10.4519 32.6157 10.4816 32.622 10.5112C32.6241 10.5207 32.6252 10.5281 32.6273 10.5345C32.6315 10.5535 32.6347 10.5726 32.6379 10.5916C32.7511 11.2097 32.7892 11.8426 32.7406 12.4702C32.7395 12.4818 32.7342 12.5263 32.731 12.5654C32.7215 12.5908 32.712 12.6173 32.7025 12.6427C32.6898 12.6744 32.676 12.7062 32.6633 12.739L32.6548 12.758C32.6569 12.7538 32.6284 12.8194 32.6241 12.8279C32.6104 12.8596 32.5956 12.8903 32.5807 12.921C32.5458 12.9962 32.5077 13.0702 32.4707 13.1433C32.5606 12.6469 32.5934 12.1379 32.5585 11.6193C32.4611 10.1873 31.9119 8.78292 31.0747 7.62298C30.6048 6.97316 30.0503 6.3879 29.4248 5.8926C29.5634 5.97409 29.6989 6.05876 29.8312 6.14977C29.9211 6.21327 30.0725 6.29265 30.1677 6.38155ZM20.8935 6.7054C21.0396 6.60274 21.1888 6.50432 21.3412 6.41013C21.393 6.37838 21.4449 6.34768 21.4968 6.31699C20.7411 7.0737 20.1495 7.98599 19.8098 8.99459C19.8087 8.99247 19.8087 8.99141 19.8077 8.9893C19.9526 8.57972 20.0998 8.17226 20.2649 7.77432C20.2733 7.75421 20.3368 7.60711 20.303 7.68225C20.3273 7.62721 20.3516 7.57112 20.377 7.51609C20.431 7.39861 20.4871 7.28114 20.5464 7.16578C20.6067 7.0483 20.6702 6.93294 20.7369 6.81864C20.7898 6.78054 20.8406 6.74244 20.8935 6.7054ZM21.1242 9.05597C21.1306 9.04327 21.1327 9.03904 21.1242 9.05597V9.05597ZM15.1615 28.9337C15.6494 28.9855 16.1437 28.9855 16.6337 28.9379C15.7616 29.7941 14.8896 30.6514 14.0175 31.5076C14.0058 31.5192 13.9931 31.5308 13.9815 31.5425C13.9138 30.5064 13.7095 29.4935 13.4026 28.5082C13.9688 28.7199 14.5572 28.8691 15.1615 28.9337ZM25.0761 20.4807C23.4975 21.8961 22.0114 23.4112 20.6268 25.0168C19.8616 25.7682 19.0975 26.5196 18.3323 27.27C18.0815 27.3864 17.8254 27.4933 17.5619 27.5811C17.4581 27.615 17.3534 27.6457 17.2475 27.6753C17.1893 27.6912 17.1311 27.706 17.0718 27.7208C17.0433 27.7282 17.0136 27.7335 16.984 27.742C16.9798 27.743 16.9787 27.743 16.9766 27.7441C16.9724 27.7452 16.9692 27.7462 16.965 27.7462C16.7152 27.7981 16.4622 27.8372 16.2082 27.8605C15.9722 27.8827 15.7383 27.8859 15.5013 27.887H15.496L15.4198 27.8838C15.3647 27.8806 15.3097 27.8775 15.2547 27.8722C15.1348 27.8623 15.0151 27.8492 14.8959 27.833C14.7827 27.8171 14.6694 27.7981 14.5572 27.7769C14.498 27.7653 14.4398 27.7536 14.3815 27.7409C14.3583 27.7356 14.3138 27.7314 14.2736 27.7251C14.2757 27.7219 14.2672 27.7166 14.2355 27.7071C14.209 27.6997 14.1826 27.6922 14.1572 27.6848C13.9788 27.6342 13.8027 27.5763 13.6291 27.5113C13.4121 27.4308 13.1994 27.3388 12.9909 27.2382C12.974 27.2298 12.956 27.2213 12.938 27.2118C12.2077 25.4073 11.179 23.7002 10.0847 22.1116C8.99461 20.5273 7.82091 19.0022 6.75728 17.3999C6.21964 16.5903 5.70846 15.7605 5.25444 14.9012C5.14649 14.6959 5.04171 14.4895 4.94011 14.282C4.93482 14.2715 4.93058 14.263 4.92741 14.2556C4.92529 14.2514 4.92212 14.245 4.91788 14.2355C4.89778 14.1921 4.87661 14.1487 4.8565 14.1042C4.79935 13.9815 4.74432 13.8587 4.69034 13.7359C4.52842 13.3655 4.38025 12.9909 4.2469 12.6099C4.24161 12.5834 4.23526 12.557 4.22891 12.5305C4.21726 12.4765 4.20668 12.4236 4.19504 12.3696C4.19292 12.3601 4.19187 12.3548 4.19081 12.3495L4.18128 12.3019C4.158 12.1823 4.13577 12.0638 4.11461 11.9442C4.04476 11.5441 3.98337 11.1377 3.93786 10.7292C3.89447 10.3323 3.87119 9.93439 3.86802 9.5354C3.86696 9.3322 3.87013 9.13005 3.87966 8.92685C3.88389 8.82843 3.88918 8.73106 3.89553 8.63264C3.89765 8.59454 3.90082 8.55749 3.90294 8.52045C3.90506 8.49294 3.91141 8.4252 3.91352 8.40615C3.9929 7.59546 4.15376 6.79219 4.40459 6.01642C4.46394 5.83293 4.52852 5.65118 4.59827 5.47138C4.63213 5.38459 4.66812 5.29887 4.7041 5.21209C4.70516 5.21103 4.70516 5.21103 4.70516 5.20891C4.71468 5.1888 4.72315 5.16869 4.73162 5.14859C4.75278 5.10202 4.77395 5.05545 4.79618 5.00994C4.96128 4.65963 5.14966 4.32097 5.36344 3.99817C5.46822 3.84048 5.57935 3.68702 5.69576 3.53779C5.75186 3.46689 5.80901 3.39704 5.86721 3.32824C5.89896 3.2912 5.93071 3.25522 5.96246 3.21924C5.96564 3.215 5.9794 3.20019 5.98681 3.19278C5.99104 3.18854 5.99527 3.18431 5.99633 3.18219C6.08629 3.08906 6.17837 3.00016 6.27362 2.91338C6.27573 2.91232 6.27679 2.91126 6.27891 2.9102C6.28526 2.90597 6.28949 2.90385 6.29267 2.90279C6.65885 2.70594 7.04303 2.5419 7.44096 2.42125C7.53621 2.39267 7.63252 2.36622 7.72883 2.34187C7.74682 2.33764 7.76482 2.33235 7.78387 2.32811H7.78492C8.04663 2.27385 8.3119 2.23848 8.57868 2.22228C8.68028 2.21593 8.78082 2.21381 8.88242 2.21381C8.8983 2.21381 8.96286 2.21487 8.98931 2.21593C9.00201 2.21699 9.01472 2.21699 9.01683 2.21699L9.12055 2.22334C9.41481 2.24509 9.70682 2.29075 9.99368 2.35987C10.0021 2.36304 10.0889 2.38632 10.1059 2.39056C10.1641 2.40749 10.2212 2.42442 10.2784 2.44347C10.4826 2.51015 10.6837 2.58741 10.8806 2.67419C10.9282 2.69536 10.9748 2.71653 11.0213 2.73875C11.033 2.74404 11.0742 2.76415 11.1028 2.77791C11.1282 2.79167 11.1822 2.81918 11.1949 2.82553C11.2489 2.85411 11.3018 2.88374 11.3536 2.91443C11.5431 3.02238 11.7262 3.13986 11.905 3.26474C11.9908 3.32507 12.0765 3.38645 12.1601 3.45101C12.2003 3.4817 12.2395 3.5124 12.2797 3.54415L12.3368 3.59177C12.5051 3.73359 12.6681 3.88281 12.8258 4.03733C12.9834 4.19223 13.1348 4.35323 13.2798 4.51993C13.3497 4.59931 13.4174 4.6808 13.4841 4.76229L13.5 4.7824L13.5158 4.80251C13.5529 4.85119 13.591 4.89988 13.628 4.94962C13.9116 5.33168 14.1646 5.73596 14.3942 6.15295C14.644 6.60803 14.7964 6.934 15.0007 7.43142C15.3849 8.36699 15.6833 9.33537 15.9521 10.3101C16.0844 10.7885 16.2082 11.269 16.3331 11.7484C16.3585 11.8447 16.4199 11.9357 16.4993 12.013C16.5257 12.2236 16.5511 12.4352 16.5765 12.6459C16.6062 12.8882 16.7618 13.0819 16.9766 13.1909C17.1512 13.2798 17.4539 13.3348 17.6148 13.1771C18.363 12.4437 18.8329 11.5547 19.2129 10.616C19.3293 10.961 19.4436 11.306 19.5547 11.6531C19.6447 11.9346 19.9463 12.1315 20.2331 12.14C20.485 12.1474 20.7549 11.9738 20.7221 11.687C20.684 11.36 20.6755 11.0308 20.6998 10.7017C20.7019 10.6784 20.7072 10.6308 20.7083 10.6234C20.7115 10.5927 20.7157 10.563 20.7189 10.5324C20.7295 10.4498 20.7422 10.3673 20.757 10.2847C20.8139 9.96354 20.8988 9.648 21.011 9.34172C21.0396 9.2634 21.0703 9.18615 21.102 9.10783C21.1052 9.09936 21.1126 9.08243 21.1189 9.06867C21.138 9.02528 21.157 8.98189 21.1782 8.93955C21.3195 8.64243 21.4833 8.35655 21.6682 8.08442C21.8066 7.88028 21.9561 7.68384 22.1159 7.49598C22.1413 7.46635 22.1667 7.43671 22.1921 7.40814C22.2006 7.39861 22.2439 7.34993 22.2609 7.33194C22.4878 7.08875 22.7315 6.86171 22.9901 6.65248C23.2441 6.44611 23.5118 6.25772 23.7912 6.08733C23.8632 6.04394 23.9362 6.00161 24.0093 5.96033C24.0167 5.95716 24.1405 5.89154 24.1617 5.88096C24.3139 5.80376 24.4689 5.7321 24.6263 5.66611C24.9406 5.53488 25.2634 5.42587 25.5936 5.34438C25.5936 5.34438 25.5957 5.34332 25.5978 5.34332C25.6423 5.34755 25.6867 5.35179 25.7312 5.35708C25.8836 5.37401 26.036 5.3973 26.1863 5.42587C26.2752 5.4428 26.363 5.46185 26.4508 5.48196C26.4794 5.48831 26.5112 5.4936 26.5387 5.50313C26.3799 5.44492 26.5673 5.5116 26.6011 5.52218C26.9609 5.62722 27.3111 5.76282 27.6478 5.92752C27.6584 5.93281 27.7886 6.00372 27.6923 5.94975C27.596 5.89471 27.7261 5.96774 27.7357 5.97409C27.7748 5.99526 27.815 6.01748 27.8542 6.03865C28.1422 6.20085 28.4187 6.3826 28.6818 6.58263C28.7178 6.61015 28.7527 6.63767 28.7887 6.66518C28.7898 6.66624 28.7898 6.66624 28.7908 6.66624C28.8617 6.72657 28.9337 6.78584 29.0036 6.84828C29.3085 7.11872 29.5916 7.41279 29.8502 7.72776C29.8545 7.73305 29.864 7.74257 29.8735 7.75316L29.864 7.74363C29.8947 7.77538 29.9201 7.8156 29.9465 7.85158C30.247 8.24835 30.5089 8.67291 30.7286 9.11947C30.7371 9.13958 30.7847 9.24118 30.7964 9.26764C30.8271 9.33643 30.8556 9.40522 30.8842 9.47401C31.013 9.79101 31.1191 10.1167 31.2017 10.4487C31.2197 10.5207 31.2356 10.5927 31.2515 10.6646C31.2525 10.6689 31.2536 10.6721 31.2536 10.6752C31.2546 10.6816 31.2557 10.69 31.2578 10.6996C31.2652 10.743 31.2737 10.7864 31.2811 10.8308C31.3351 11.1578 31.3647 11.488 31.3668 11.8193C31.3679 11.9738 31.3615 12.1283 31.352 12.2818C31.351 12.2924 31.351 12.2998 31.351 12.3061C31.3499 12.3114 31.3499 12.3157 31.3488 12.3231C31.3435 12.3675 31.3393 12.4109 31.334 12.4554C31.3234 12.5432 31.3107 12.631 31.2959 12.7189C31.1679 13.4692 30.917 14.0884 30.5477 14.7255C29.646 16.277 28.3569 17.4232 27.0858 18.6731L26.3821 19.3642C25.9397 19.7293 25.5026 20.0987 25.0761 20.4807ZM29.5602 4.04368C29.5666 4.04686 29.574 4.05003 29.5804 4.05321C29.6788 4.10083 29.5856 4.0585 29.5602 4.04368ZM25.2803 3.59071C25.275 3.59177 25.2708 3.59283 25.2697 3.59283C25.2729 3.59177 25.2771 3.59177 25.2803 3.59071ZM23.2959 4.34319C23.3372 4.31991 23.3795 4.29768 23.4219 4.27652C23.5245 4.22254 23.6293 4.17174 23.7351 4.12306C24.1363 3.93679 24.5532 3.78439 24.9798 3.66691C25.0845 3.63834 25.1904 3.61294 25.2951 3.58754H25.2962C25.3174 3.5833 25.3396 3.57801 25.3608 3.57378C25.6342 3.51841 25.9105 3.47778 26.1884 3.45207C26.4117 3.4309 26.6361 3.42032 26.8594 3.42032C26.9133 3.42032 26.9673 3.42032 27.0213 3.42138H27.0414C27.0456 3.42138 27.0509 3.42138 27.0562 3.42244C27.1716 3.42879 27.2869 3.43514 27.4023 3.44572C27.7324 3.47606 28.0599 3.52982 28.3823 3.60659C28.4024 3.61082 28.4225 3.61717 28.4373 3.62035C28.4299 3.61823 28.4194 3.61505 28.4067 3.61188L28.4395 3.6214C28.4575 3.6267 28.4649 3.62881 28.449 3.62458L28.5834 3.66268C28.903 3.75834 29.2148 3.87865 29.5158 4.02251C29.5295 4.02886 29.5433 4.03627 29.5571 4.04262C29.5994 4.07861 29.6693 4.10189 29.7169 4.12729C30.0012 4.28554 30.2738 4.46379 30.5329 4.66069C30.5635 4.68397 30.5942 4.70832 30.6239 4.73266C30.644 4.757 30.6842 4.7824 30.7085 4.80251C31.043 5.08826 31.3467 5.4047 31.6261 5.74337C31.624 5.7402 31.6219 5.73808 31.6198 5.73491C31.6219 5.73808 31.6251 5.74125 31.6272 5.74549C31.6282 5.7476 31.6304 5.74972 31.6325 5.75078C31.6409 5.76136 31.6568 5.78253 31.6621 5.791C31.6949 5.83439 31.7277 5.87778 31.7605 5.92011C31.8293 6.01431 31.8971 6.10956 31.9616 6.20692C32.1465 6.48266 32.3134 6.77007 32.4611 7.06735C32.4664 7.07794 32.477 7.09699 32.4813 7.10651C32.5077 7.1626 32.5331 7.21975 32.5585 7.2769C32.6464 7.47693 32.7268 7.68013 32.7977 7.88545C32.8125 7.92884 32.8252 7.97223 32.84 8.01562C31.4515 5.5571 28.7517 3.81085 25.8656 4.15163C25.6581 4.17597 25.4518 4.21196 25.2475 4.25535C24.5522 4.21513 23.8505 4.27228 23.1647 4.41939C23.1806 4.40987 23.1965 4.39928 23.2134 4.38976C23.2293 4.38129 23.2748 4.35589 23.2959 4.34319ZM14.5562 2.91443C14.5985 2.94724 14.6398 2.98005 14.6821 3.01286C14.6885 3.01815 14.6938 3.02133 14.698 3.02556C14.7033 3.02979 14.7086 3.03508 14.716 3.04038C14.8102 3.12081 14.9054 3.20019 14.9975 3.28379C15.3383 3.5886 15.6558 3.91986 15.9532 4.26699C16.0156 4.33896 16.077 4.41304 16.1373 4.48607C16.1416 4.49136 16.1892 4.55062 16.2051 4.56967C16.2326 4.6046 16.2601 4.63953 16.2855 4.67445C16.4358 4.8713 16.5808 5.07133 16.7205 5.27665C16.9893 5.67035 17.238 6.07781 17.4698 6.49479C17.5809 6.69588 17.6889 6.89908 17.7926 7.1044C17.8402 7.19859 17.8868 7.29384 17.9333 7.38909C17.9439 7.41131 17.9788 7.4854 17.9799 7.48646C18.0095 7.54996 18.0392 7.61346 18.0677 7.67696C17.7439 8.08971 17.455 8.52998 17.2063 8.99141C17.0041 8.02621 16.7385 7.07582 16.3617 6.16142C15.7373 4.64693 14.7901 3.25099 13.5211 2.22334C13.6957 2.32494 13.8672 2.43077 14.0355 2.5419C14.2129 2.66054 14.3866 2.78478 14.5562 2.91443ZM4.24055 18.7842C4.22362 18.7641 4.22997 18.7715 4.24055 18.7842V18.7842ZM5.5603 20.1728C5.20787 19.8531 4.87026 19.5176 4.55593 19.1599C4.48926 19.0837 4.42258 19.0065 4.35802 18.9292C4.32521 18.89 4.29346 18.8509 4.26171 18.8117C4.26171 18.8117 4.26066 18.8096 4.2596 18.8086C4.24901 18.7948 4.22467 18.763 4.21938 18.7578C4.09026 18.5916 3.96538 18.4212 3.84579 18.2476C3.6066 17.9005 3.38647 17.5407 3.18644 17.1692C3.13882 17.0803 3.09119 16.9903 3.04568 16.9004C3.0224 16.8549 3.00018 16.8094 2.97795 16.7649C2.97584 16.7607 2.96208 16.731 2.95678 16.7226C2.95043 16.7099 2.94514 16.6982 2.94408 16.6951C2.85413 16.5035 2.77052 16.3109 2.69114 16.1151C2.40698 15.4143 2.187 14.6892 2.03391 13.9487C2.02227 13.8905 2.01169 13.8322 2.0011 13.774C1.92596 13.3581 1.87093 12.938 1.83812 12.5157C1.80425 12.086 1.79261 11.6542 1.8032 11.2234C1.80849 11.0118 1.82013 10.8012 1.83494 10.5906C1.836 10.5715 1.83706 10.563 1.83706 10.5578C1.83706 10.5535 1.83812 10.544 1.84024 10.5239C1.84553 10.4731 1.84976 10.4233 1.85505 10.3725C1.86669 10.2635 1.87939 10.1545 1.89421 10.0455C1.99687 9.27505 2.17361 8.51516 2.4255 7.78067C2.34612 8.71201 2.38422 9.65393 2.54403 10.5673C2.66574 11.2626 2.84778 11.9431 3.07638 12.6088C3.36001 13.9614 3.75901 15.2949 4.21832 16.5913C4.67976 17.8931 5.21422 19.179 5.83652 20.4193C5.74339 20.3379 5.65131 20.2564 5.5603 20.1728ZM12.7157 34.1195C12.6808 34.1396 12.6459 34.1597 12.612 34.1799C12.5993 34.1862 12.5305 34.2233 12.5146 34.2307C12.4066 34.287 12.2973 34.3407 12.1866 34.3915C12.1506 34.4085 12.1125 34.4233 12.0754 34.4392C12.2659 33.9491 12.4966 33.4803 12.7252 32.9744L12.8046 32.7966C12.7845 33.0527 12.8882 33.293 13.1179 33.4306C13.2311 33.4983 13.3962 33.5576 13.5497 33.5576C13.4703 33.6179 13.3909 33.6771 13.3095 33.7354C13.1168 33.8719 12.9189 33.9999 12.7157 34.1195ZM24.4919 22.9858C25.4348 22.0598 26.3768 21.1337 27.3197 20.2077C27.4044 20.1368 27.488 20.0659 27.5737 19.995C27.8955 19.7304 28.2193 19.469 28.5432 19.2065C27.2636 20.5389 25.9047 21.7973 24.4919 22.9858Z" fill="#E04D42"/>
</svg>
