<svg width="57" height="58" viewBox="0 0 57 58" fill="none" xmlns="http://www.w3.org/2000/svg">
<path d="M33.6089 19.4951C33.9518 19.4252 34.2926 19.3395 34.6302 19.2411C35.1097 19.1596 35.5944 19.1173 36.0802 19.1151C36.332 19.1141 36.4728 19.1204 36.767 19.149C36.8887 19.1607 37.0104 19.1755 37.1321 19.1924C37.1903 19.2019 37.2486 19.2104 37.3068 19.2199C37.3883 19.2326 37.4697 19.2453 37.5512 19.2601V19.258C37.8359 19.3025 38.1301 19.1173 38.1132 18.8082C38.0952 18.4791 37.783 18.2399 37.4824 18.1849C37.4369 18.1764 37.3925 18.17 37.348 18.1626C37.4465 18.0547 37.4856 17.9044 37.4274 17.7298C37.4149 17.6932 37.3993 17.6578 37.3808 17.6239C37.6549 17.5679 37.9428 17.4726 38.1026 17.2271C38.5365 16.5603 37.6232 15.9073 37.0051 16.1222C36.767 16.2058 36.677 16.3963 36.6866 16.6016C36.6823 16.6027 36.6781 16.6027 36.6739 16.6037L36.1902 16.6831L34.336 16.9879C33.8979 17.0599 33.4587 17.1318 33.0205 17.2006C32.3051 17.1742 31.5886 17.1339 30.8573 17.0715C30.4826 17.0397 30.1101 17.0016 29.7397 16.9572C28.3098 16.7286 26.9044 16.4873 25.5391 16.083C25.4418 16.0513 25.3433 16.0195 25.247 15.9856C24.809 15.8354 24.3779 15.6659 23.9548 15.4776C23.7611 15.3909 23.5685 15.2998 23.378 15.2035C23.3526 15.1898 23.2838 15.1549 23.2785 15.1517C23.2245 15.1231 23.1706 15.0945 23.1166 15.0649C23.0086 15.0067 22.9028 14.9464 22.797 14.885C22.3906 14.6479 21.9969 14.3886 21.6212 14.1071C21.4074 13.9473 21.3164 13.8732 21.1735 13.7515C20.9872 13.5927 20.8062 13.4287 20.6306 13.2583C19.2875 11.9587 18.3022 10.3087 17.5942 8.57835C17.428 8.1709 17.2746 7.7592 17.1317 7.34434C17.127 6.20146 16.9967 5.06257 16.7433 3.94814C16.6798 3.66768 16.3411 3.46448 16.0586 3.45707C15.976 3.09512 15.8966 2.73317 15.8183 2.37122C15.8183 2.36698 15.8173 2.36381 15.8173 2.35958H15.8162C15.8067 2.31407 15.7961 2.26962 15.7866 2.22411C15.7612 2.10452 15.6839 2.00292 15.5812 1.92354C15.54 1.73622 15.4998 1.54889 15.4564 1.36157C15.3855 1.05782 14.997 0.84404 14.7028 0.872615C14.3726 0.905424 14.2541 1.17212 14.3176 1.46528V1.4674C14.3261 1.50232 14.3335 1.53831 14.3409 1.57429C14.3938 1.81559 14.4478 2.05795 14.5017 2.30031C14.6393 2.95648 14.7579 3.61688 14.8595 4.2794C14.8013 4.35136 14.7674 4.4445 14.778 4.55774C15.0426 7.46922 15.3241 10.6072 14.6065 13.4922C13.4625 16.1656 11.5797 18.6156 9.26616 20.4158C9.17832 20.4846 9.09047 20.5513 9.00157 20.6169C8.19406 21.0709 7.34528 21.4488 6.45522 21.779C6.20227 21.8732 5.94933 21.961 5.69533 22.0446C4.30785 22.2573 2.93308 22.5664 1.58264 22.9357C1.30324 23.0119 1.02384 23.0913 0.746555 23.1728C0.473505 23.2532 0.423763 23.5803 0.532771 23.8025C0.655538 24.0544 0.961397 24.2661 1.2535 24.2237C2.19436 24.0883 3.14157 23.9168 4.07925 23.6999C3.75329 24.0988 4.38088 24.7487 4.90264 24.5783L4.9037 24.5793C4.90687 24.5772 4.91005 24.5762 4.91428 24.574C5.69956 24.3137 6.49967 24.0459 7.29448 23.7528C7.8935 23.6205 8.48722 23.4533 9.07777 23.2892C9.51063 23.2374 9.94667 23.2067 10.3859 23.2003C12.2316 23.1728 14.0149 23.5834 15.6934 24.3952C15.7072 24.4015 15.7167 24.4068 15.7262 24.4111C15.7305 24.4132 15.7347 24.4153 15.74 24.4185C16.1559 24.8566 16.538 25.3244 16.8819 25.7731C17.8372 27.0188 18.672 28.3523 19.3754 29.7556C20.1395 31.2818 20.7491 32.9666 21.1671 34.6526C21.2158 34.8484 21.3957 35.0008 21.6 35.078C21.5524 36.5417 21.5704 38.0085 21.6042 39.4733C21.6106 39.7643 21.8942 40.013 22.1577 40.0765C22.3736 40.1284 22.7621 40.0776 22.7875 39.7823C22.797 39.6754 22.8065 39.5675 22.815 39.4606C22.8065 40.0956 22.7896 40.7306 22.7695 41.3624C22.7589 41.699 22.7472 42.0366 22.7356 42.3731C22.7356 42.3795 22.7356 42.3848 22.7345 42.3911V42.3953C22.7229 42.7118 23.0838 42.9795 23.3653 43.0187C23.6796 43.0632 23.9135 42.8822 23.9294 42.5689C24.1506 38.0212 23.8691 33.3688 25.1041 28.9354C25.6354 27.0283 26.4398 25.3053 27.6706 23.7263C28.2442 22.9908 28.8464 22.3579 29.564 21.7462C30.2455 21.1651 31.0393 20.6116 31.7918 20.2222C32.0775 20.074 32.3696 19.9396 32.667 19.8168C32.9634 19.7057 33.2618 19.6009 33.5634 19.5078C33.5772 19.5036 33.5931 19.4993 33.6089 19.4951ZM31.6013 18.6378C31.1589 18.6685 30.7472 18.6759 30.3355 18.6601C30.9536 18.6114 31.5706 18.5405 32.1844 18.4569C32.0373 18.5119 31.8902 18.568 31.7431 18.6262C31.6965 18.6294 31.6489 18.6347 31.6013 18.6378ZM27.3626 17.6187C26.3974 17.552 25.4471 17.3826 24.5422 17.0588C24.4512 17.026 24.3612 16.9921 24.2723 16.9572C24.1919 16.9127 24.1114 16.8683 24.031 16.8228C23.7029 16.6355 23.3812 16.4333 23.0679 16.2217C23.8924 16.6101 24.7475 16.9149 25.6206 17.1625C26.1932 17.3393 26.7753 17.4906 27.3626 17.6187ZM22.0477 28.8381C21.7609 28.2687 21.4381 27.7183 21.0729 27.1913C19.6897 25.1921 17.7709 23.6522 15.5061 22.7622C15.4288 22.7315 15.3505 22.704 15.2733 22.6754C15.0743 22.5367 14.87 22.4076 14.6552 22.2933C13.9239 21.9028 13.128 21.671 12.2972 21.6361C12.0845 21.6276 11.8728 21.6287 11.6622 21.6393C12.4465 21.1196 13.1746 20.5217 13.8191 19.82C15.0775 18.4505 15.7961 16.7402 16.1242 14.922C16.2924 13.9928 16.3919 13.0456 16.4427 12.0931C16.6047 11.5438 16.7401 10.9882 16.846 10.4262C17.0724 10.8813 17.3159 11.3279 17.5773 11.7639C18.226 12.9577 18.9859 14.088 19.9109 15.0903C21.0179 16.2904 22.3736 17.2683 23.8839 17.8864C25.3042 18.6505 26.8366 19.204 28.422 19.5057C28.785 19.5745 29.1512 19.6284 29.5185 19.6697C28.2686 20.3576 27.1065 21.1937 26.0905 22.2076C25.0057 23.2903 24.14 24.5381 23.4764 25.9022C22.906 26.8304 22.4244 27.8136 22.0477 28.8381ZM37.8359 16.6513C37.8359 16.6587 37.837 16.6662 37.837 16.6736C37.8243 16.6365 37.8084 16.6005 37.7904 16.5656C37.8052 16.5942 37.8211 16.6228 37.8359 16.6513ZM18.8801 26.7987C18.951 26.8749 19.0198 26.9511 19.0886 27.0283C19.1563 27.1045 19.223 27.1818 19.2886 27.2601C19.3214 27.2992 19.3532 27.3384 19.386 27.3776C19.4018 27.3966 19.4092 27.4061 19.4145 27.4114C19.4188 27.4167 19.4251 27.4252 19.4389 27.4432C19.7003 27.7797 19.9469 28.1279 20.1712 28.4909C20.2834 28.6719 20.3893 28.855 20.4909 29.0423C20.5935 29.2318 20.6782 29.399 20.7385 29.5281C20.9989 30.089 21.2105 30.6743 21.3725 31.2712C21.3576 31.3506 21.3428 31.4289 21.3301 31.5082C20.6827 29.856 19.8614 28.2772 18.8801 26.7987ZM23.2404 32.0035C23.197 31.8406 23.1505 31.6786 23.1028 31.5178C23.2658 30.4616 23.4987 29.417 23.8278 28.3914C24.0278 27.7691 24.2691 27.1595 24.5506 26.5701C24.5782 26.5256 24.6046 26.479 24.6332 26.4346C24.4893 26.7807 24.3559 27.1331 24.2363 27.4897C23.7421 28.9577 23.4373 30.4732 23.2404 32.0035ZM56.4806 42.7584C56.3515 42.4271 55.9568 42.1953 55.6043 42.2186C55.4043 42.2313 55.2551 42.335 55.1905 42.4832L54.8159 42.4991C54.456 42.5139 54.0962 42.5287 53.7353 42.5446C53.5554 42.552 53.3744 42.5594 53.1945 42.5657C52.823 42.5065 52.4537 42.4408 52.0854 42.3657C51.8377 42.3149 51.5901 42.2588 51.3435 42.1985C50.8619 42.0588 50.3814 41.9127 49.9094 41.7466C49.6237 41.645 49.3411 41.5349 49.0628 41.4143C48.9474 41.3603 48.8342 41.3 48.7188 41.246C48.9082 41.3328 48.7071 41.2386 48.6638 41.2153C48.6013 41.1814 48.5399 41.1465 48.4785 41.1105C48.2505 40.9785 48.0287 40.8358 47.8139 40.683C47.7621 40.6459 47.7102 40.6078 47.6594 40.5687C47.6192 40.538 47.4477 40.3961 47.6097 40.5327C47.5059 40.4459 47.4022 40.3602 47.3017 40.2702C47.1044 40.0919 46.9178 39.9022 46.7429 39.7019C46.7238 39.6807 46.7058 39.6595 46.6878 39.6384C46.6857 39.6352 46.6826 39.632 46.6794 39.6278C46.6349 39.5717 46.5915 39.5167 46.5481 39.4606C46.3788 39.2364 46.2232 39.0021 46.0825 38.7589C46.0476 38.6986 46.0137 38.6383 45.9798 38.5769C45.9618 38.5451 45.9438 38.5123 45.928 38.4795C45.9231 38.4687 45.9178 38.4581 45.9121 38.4478C45.657 37.9345 45.4581 37.3937 45.3004 36.8433C45.258 36.6941 45.2189 36.5438 45.1808 36.3935C45.1797 36.3903 45.1797 36.3872 45.1787 36.384C45.1776 36.3776 45.1755 36.3702 45.1734 36.3618L45.1448 36.2379C45.1353 36.1924 45.1257 36.1459 45.1152 36.0993C45.1914 35.4474 45.1977 34.788 45.131 34.1371C45.1088 33.9223 44.949 33.7255 44.7532 33.6133C44.7352 33.4355 44.7183 33.2577 44.7024 33.0799C44.6929 32.9793 44.6527 32.882 44.5913 32.7952C44.5839 32.7169 44.5765 32.6375 44.568 32.5581C44.5341 32.2533 44.2293 31.9824 43.9309 31.9443C43.661 31.9094 43.3615 32.0385 43.3911 32.356V32.3591L43.4007 32.4576C43.4134 32.5899 43.4261 32.7232 43.4398 32.8566C43.4737 33.2386 43.4959 33.6217 43.5086 34.0049C43.4705 34.0673 43.4451 34.1435 43.4419 34.2377C43.4335 34.5065 43.425 34.7753 43.4134 35.0452C43.4081 35.1733 43.4017 35.3013 43.3954 35.4304C43.3954 35.4368 43.3943 35.44 43.3943 35.4453C43.3943 35.4389 43.3954 35.4336 43.3954 35.4304L43.389 35.5373C43.3848 35.6156 43.3795 35.694 43.3742 35.7733C43.3382 36.3004 43.2853 36.8253 43.2017 37.3471C43.1191 37.8667 43.0048 38.3832 42.845 38.8848C42.8069 39.0044 42.7667 39.1219 42.7233 39.2394C42.7201 39.2479 42.717 39.2563 42.7138 39.2658C42.5455 39.5516 42.3635 39.8289 42.1677 40.0966C41.9375 40.4132 41.6898 40.7167 41.4258 41.0057C41.4089 41.0237 41.3919 41.0428 41.375 41.0608C41.3708 41.065 41.3697 41.0671 41.3665 41.0703L41.3591 41.0777C40.722 41.7413 40.0045 42.3234 39.216 42.7975C39.1832 42.8166 39.1493 42.8356 39.1165 42.8547C39.0943 42.8642 39.0721 42.8748 39.0498 42.8832C38.5789 43.0727 38.0942 43.223 37.601 43.3436C37.4697 43.3754 37.3375 43.4061 37.2052 43.4336L37.1268 43.4494C36.1849 43.4791 35.2462 43.5817 34.3138 43.7373H34.3064V43.7384H34.3053C34.173 43.7606 34.0481 43.7934 33.9698 43.9141C33.9 44.0209 33.8979 44.1765 33.9455 44.2929C34.0683 44.5893 34.3783 44.7893 34.699 44.7819C35.1054 44.7724 35.515 44.7523 35.9246 44.7173C35.9404 44.7766 35.9659 44.8348 36.0039 44.8877C36.1966 45.1576 36.4992 45.2846 36.822 45.22C36.8231 45.2211 36.8242 45.2222 36.8242 45.2243C36.8337 45.22 36.8443 45.2179 36.8538 45.2137C37.3057 45.1227 37.7587 45.0274 38.2074 44.9205C38.5344 44.8888 38.8604 44.8412 39.1874 44.7925C39.3049 44.7914 39.4234 44.7935 39.5409 44.7988H39.5547C39.5822 44.7999 39.6097 44.8031 39.6383 44.8052C39.9868 44.8312 40.3331 44.8821 40.6744 44.9576C40.74 44.9724 40.8046 44.9872 40.8691 45.0031L40.9548 45.0253C40.958 45.0264 40.9771 45.0317 40.9972 45.0369C41.0215 45.0444 41.0554 45.0539 41.0586 45.0549C41.0871 45.0634 41.1157 45.0719 41.1432 45.0814C41.4749 45.1858 41.7982 45.3149 42.1105 45.4677C42.119 45.4719 42.1296 45.4762 42.1402 45.4804C42.1455 45.4836 42.1539 45.4878 42.1709 45.4973C42.2248 45.527 42.2778 45.5555 42.3307 45.5862C42.4429 45.6497 42.5519 45.7164 42.6598 45.7873C42.6715 45.7947 42.6831 45.8032 42.6947 45.8106C42.7307 45.8614 42.7678 45.9122 42.8038 45.964C42.9265 46.145 43.044 46.3313 43.1572 46.5186C43.2789 46.7197 43.3954 46.924 43.5065 47.1303C43.5329 47.179 43.5573 47.2266 43.5837 47.2753C43.5837 47.2764 43.5837 47.2764 43.5848 47.2764C43.5943 47.2944 43.6028 47.3124 43.6123 47.3314C43.8767 47.8532 44.1085 48.3908 44.3066 48.9411C44.3934 49.1824 44.4738 49.4259 44.5479 49.6714C44.5839 49.7899 44.6177 49.9095 44.6506 50.0291L44.6982 50.209C44.7056 50.2387 44.713 50.2694 44.7215 50.299C44.7236 50.3075 44.7384 50.3699 44.7426 50.3837C44.7437 50.3868 44.7437 50.39 44.7437 50.3911L44.7691 50.5043C44.7828 50.5646 44.7955 50.625 44.8082 50.6863C44.8347 50.8155 44.8601 50.9446 44.8834 51.0737C44.93 51.333 44.9681 51.5923 45.0009 51.8537C45.0199 52.005 45.0982 52.1384 45.2072 52.2421C45.0908 53.0263 45.0072 53.8148 44.93 54.6032C44.8993 54.9123 45.1162 55.2001 45.4073 55.3028C45.4475 55.3166 45.4909 55.3282 45.5353 55.3356C45.5014 55.5631 45.4655 55.7918 45.4295 56.0214C45.4115 56.1336 45.3935 56.2447 45.3745 56.3569C45.3755 56.3569 45.3755 56.358 45.3766 56.358C45.3289 56.6628 45.5755 56.9591 45.8539 57.0575C46.0867 57.1401 46.4846 57.1358 46.5386 56.8173C46.9747 54.272 47.1419 51.6388 48.0954 49.2131C48.1124 49.1697 48.1304 49.1274 48.1473 49.084C48.1494 49.0798 48.1547 49.066 48.1589 49.0554C48.1865 48.9898 48.215 48.9253 48.2436 48.8597C48.3124 48.7041 48.3854 48.5496 48.4616 48.3972C48.5897 48.1421 48.7273 47.8913 48.8807 47.65C49.1328 47.2536 49.4185 46.8797 49.7348 46.5324C49.7528 46.5133 49.7708 46.4932 49.7877 46.4742C49.793 46.4689 49.7951 46.4657 49.7994 46.4625C49.8121 46.4488 49.8248 46.4361 49.8375 46.4223C50.2132 46.0339 50.627 45.6825 51.0704 45.3746C51.2969 45.2179 51.5308 45.074 51.7721 44.9428C51.8049 44.9248 51.8388 44.9068 51.8726 44.8898C51.9287 44.8623 51.9848 44.8348 52.0398 44.8083C52.169 44.748 52.2991 44.6919 52.4314 44.6401C52.7108 44.53 52.9987 44.439 53.2919 44.3702C53.294 44.3702 53.2961 44.3691 53.2982 44.3691C53.3437 44.3596 53.3882 44.349 53.4337 44.3406C53.4358 44.3406 53.44 44.3395 53.4443 44.3384C53.4474 44.3374 53.4517 44.3374 53.4559 44.3363C53.6877 44.3205 53.9184 44.2929 54.1491 44.2538C54.2708 44.2474 54.3925 44.2443 54.5153 44.2464C54.5471 44.2474 54.5788 44.2474 54.6105 44.2485L54.6868 44.2517C54.6635 44.2506 54.6391 44.2485 54.6158 44.2474C54.6793 44.2326 54.7778 44.2601 54.8444 44.2675C54.9979 44.2845 55.1503 44.3088 55.3016 44.3406C55.3778 44.3564 55.454 44.3744 55.5292 44.3935C55.5451 44.3977 55.5609 44.4019 55.5758 44.4062C55.5821 44.4083 55.5895 44.4104 55.5959 44.4115C55.4329 44.3755 55.6033 44.4146 55.6403 44.4263V44.4242C55.8774 44.4919 56.2679 44.5088 56.324 44.1839C56.3642 43.9522 56.216 43.7066 56.0171 43.569C56.0213 43.5436 56.0234 43.5182 56.0224 43.4907C56.0721 43.4801 56.1219 43.4653 56.1684 43.4452C56.4552 43.3277 56.5949 43.0526 56.4806 42.7584ZM46.1788 48.1146C46.0677 47.8648 45.9448 47.6204 45.8105 47.3822C45.1194 46.1609 44.0833 45.2105 42.8556 44.5512C42.7286 44.4379 42.5953 44.3321 42.4545 44.2347C42.118 44.003 41.7518 43.8484 41.3708 43.7511C41.6989 43.5595 42.0111 43.3436 42.2979 43.096C42.6873 42.7584 43.0355 42.3657 43.3096 41.9297C43.6123 41.446 43.8346 40.9094 44.0039 40.3665C44.1616 39.8606 44.2801 39.3389 44.3733 38.8129C44.4209 38.7039 44.4664 38.5927 44.5108 38.4816C44.8241 39.2891 45.2199 40.0585 45.7385 40.7549C46.3185 41.5339 47.0413 42.19 47.8795 42.6652C48.6585 43.2187 49.5178 43.6569 50.4301 43.9447C50.4418 43.9479 50.4523 43.9511 50.464 43.9553C49.8015 44.2612 49.1749 44.638 48.6066 45.1026C47.9451 45.6423 47.3821 46.2932 46.926 47.0118C46.6516 47.3616 46.4019 47.7301 46.1788 48.1146ZM55.4805 42.4694C55.4805 42.4694 55.4784 42.4694 55.4742 42.4705H55.4731C55.5609 42.4493 55.5175 42.4663 55.4805 42.4694ZM50.8704 42.0768C50.7646 42.045 50.8323 42.0662 50.8704 42.0768V42.0768ZM46.6773 39.6828C46.708 39.7188 46.7799 39.7781 46.6773 39.6828V39.6828ZM42.1529 45.4857C42.1751 45.4952 42.1984 45.5047 42.2121 45.5185C42.209 45.5153 42.174 45.4963 42.1529 45.4857ZM44.7405 50.3688C44.7299 50.3254 44.7373 50.3561 44.7426 50.3773C44.7416 50.3752 44.7416 50.3731 44.7405 50.3688ZM51.8631 44.8962L51.8673 44.8941C51.8663 44.8951 51.8642 44.8951 51.8631 44.8962ZM51.8345 44.9099C51.8377 44.9078 51.8441 44.9047 51.8536 44.9004C51.8462 44.9047 51.8388 44.9078 51.8345 44.9099Z" fill="#D4AD21"/>
</svg>
