<svg width="91" height="76" viewBox="0 0 91 76" fill="none" xmlns="http://www.w3.org/2000/svg">
<path d="M44.8907 44.2474C44.8854 43.8579 44.8759 43.4684 44.8653 43.0779C44.8844 41.3211 44.8473 39.5642 44.7521 37.8106C44.679 36.4633 44.5711 35.1171 44.4303 33.7762C44.3562 32.7157 44.2705 31.6564 44.1657 30.598C44.0546 29.4847 43.8832 28.3628 43.5307 27.2981C43.4535 27.0664 43.3667 26.8356 43.2693 26.607C43.1624 26.2874 43.0333 25.9742 42.8672 25.6746C42.5169 25.0407 41.9993 24.5306 41.3749 24.1803C40.4849 23.576 39.4202 23.2892 38.3311 23.431C38.3004 23.4352 38.2708 23.4405 38.2401 23.4447C37.1088 23.3474 35.9467 23.6183 35.0217 24.2851C34.1444 24.9169 33.5993 25.862 33.3813 26.8886C32.9633 26.5457 32.5029 26.2557 32.0139 26.0334C31.8181 25.8228 31.6044 25.6302 31.362 25.4683C30.5513 24.9253 29.5724 24.8756 28.6622 25.1741C27.8473 25.4408 27.098 25.9339 26.3952 26.4165C25.6957 26.897 25.0892 27.4855 24.8215 28.311C24.5696 29.0867 24.6193 29.9535 24.6701 30.7568C24.7157 31.4711 24.8024 32.1823 24.9294 32.8861C25.1919 34.335 25.6036 35.7521 26.173 37.11C26.7413 38.4636 27.4462 39.7632 28.2812 40.9697C29.1183 42.1783 30.0782 43.3065 31.1493 44.314C32.2203 45.3226 33.4014 46.2233 34.6682 46.9715C35.9393 47.7219 37.3056 48.2701 38.6391 48.8966C38.7862 48.9654 38.9312 49.0363 39.0762 49.1083C39.1376 49.158 39.2 49.2078 39.2604 49.2586C39.2582 49.2565 39.253 49.2522 39.2477 49.248C39.2847 49.2787 39.3217 49.3083 39.3577 49.339C39.4339 49.4025 39.5101 49.465 39.5863 49.5295C39.7377 49.6576 39.888 49.7867 40.0361 49.9179C40.6182 50.4312 41.177 50.9689 41.7125 51.5298C41.975 51.8039 42.2301 52.0843 42.4809 52.3701C42.6343 52.5447 42.9159 52.6326 43.1381 52.5839C43.3678 52.5331 43.463 52.369 43.481 52.1468C43.4958 51.9669 43.5085 51.788 43.5223 51.6081C44.7521 49.3771 44.9267 46.7535 44.8907 44.2474ZM31.8806 27.0907C31.8848 27.0928 31.8891 27.096 31.8943 27.0981C31.8097 27.0706 31.8097 27.0611 31.834 27.0685C31.8488 27.0769 31.8647 27.0843 31.8806 27.0907ZM28.2854 28.2993C28.2875 28.2993 28.2897 28.2983 28.2897 28.2983C28.3267 28.2909 28.3637 28.2845 28.4008 28.2781C28.6241 28.24 28.8506 28.2178 29.0771 28.2104C29.1712 28.2072 29.3268 28.1765 29.4157 28.2083C29.4136 28.2072 29.3088 28.2041 29.3734 28.2072C29.402 28.2083 29.4295 28.2094 29.4581 28.2115C29.5141 28.2146 29.5702 28.2178 29.6263 28.2221C29.8369 28.239 30.0465 28.2655 30.2539 28.3014C30.3576 28.3194 30.4614 28.3406 30.564 28.3628C30.6359 28.379 30.7075 28.3963 30.7789 28.4147C30.9821 28.4718 31.1831 28.5374 31.38 28.6126C31.5779 28.6877 31.7716 28.7713 31.9621 28.8634C31.9811 28.8729 32.0002 28.8825 32.0192 28.8909C32.0203 28.8909 32.0203 28.892 32.0213 28.892C32.052 28.9079 32.0827 28.9237 32.1124 28.9396C32.3971 29.0943 32.6711 29.2679 32.9326 29.4593C32.9611 29.4804 32.9887 29.5016 33.0162 29.5238C33.3908 30.1514 33.7644 30.779 34.1391 31.4055C34.3751 31.8003 34.6111 32.1961 34.8471 32.5909C34.9953 32.8385 35.3223 32.992 35.6038 32.9295C35.8726 32.8703 36.0049 32.6163 35.9181 32.3538C35.8546 32.1601 35.7964 31.9654 35.7446 31.7685C35.7181 31.6691 35.6938 31.5696 35.6715 31.4701C35.662 31.4278 35.6525 31.3844 35.643 31.341C35.6377 31.3177 35.6229 31.2383 35.644 31.3505C35.6387 31.3219 35.6324 31.2933 35.6271 31.2637C35.5498 30.8605 35.499 30.452 35.4779 30.0413C35.4618 29.7356 35.4636 29.4293 35.4832 29.1238C35.4853 29.0846 35.4948 28.9946 35.4853 29.0857C35.4906 29.0285 35.4959 28.9703 35.5022 28.9132C35.5477 28.5152 35.6271 28.1215 35.7456 27.7384C35.7874 27.6026 35.8343 27.4684 35.8864 27.3362C35.8949 27.314 35.933 27.2283 35.9319 27.2283C36.0102 27.06 36.0917 26.8928 36.1859 26.7319C36.2872 26.5587 36.3985 26.3915 36.5193 26.2313C36.5711 26.1636 36.6251 26.0969 36.6801 26.0324C36.6918 26.0186 36.7045 26.0059 36.7151 25.9921C36.7521 25.9466 36.6833 26.026 36.6833 26.025C36.7077 25.9879 36.751 25.954 36.7828 25.9234C37.0188 25.6884 37.2855 25.4831 37.5713 25.3116C37.6072 25.2905 37.6443 25.2714 37.6792 25.2481C37.6824 25.246 37.6845 25.245 37.6866 25.2428C37.6919 25.2407 37.6972 25.2376 37.7025 25.2354C37.9999 25.0807 38.3133 24.9587 38.637 24.8714C38.6719 24.8618 38.7058 24.8534 38.7407 24.8449C38.7407 24.8449 38.746 24.8428 38.7534 24.8407C38.7587 24.8396 38.7661 24.8386 38.7767 24.8375C38.9397 24.8068 39.1027 24.7804 39.2678 24.7666C39.3133 24.7624 39.3598 24.7613 39.4054 24.7581C39.5101 24.7994 39.6128 24.8449 39.7144 24.8925C39.7356 24.9042 39.7578 24.9158 39.7779 24.9275C39.8424 24.9634 39.9059 25.0015 39.9684 25.0418C40.0467 25.0915 40.1187 25.1529 40.1949 25.2069C40.1726 25.1889 40.2002 25.1973 40.2256 25.2196C40.2372 25.2291 40.2488 25.2397 40.2605 25.2492L40.2711 25.2566C40.2679 25.2545 40.2658 25.2534 40.2626 25.2513C40.2785 25.2651 40.2954 25.2788 40.3102 25.2926C40.3663 25.3423 40.4203 25.3942 40.4732 25.4471C40.5219 25.4958 40.5685 25.5455 40.614 25.5963C40.6447 25.6302 40.8002 25.7974 40.6806 25.6694C40.7801 25.7762 40.8627 25.9128 40.9421 26.0355C41.0382 26.1852 41.1262 26.3399 41.2056 26.4991C41.2066 26.5012 41.2077 26.5023 41.2088 26.5044C41.2405 26.5742 41.2723 26.643 41.3019 26.7139C41.4204 26.9933 41.5167 27.2823 41.5993 27.5744C41.6384 27.7151 41.6744 27.8569 41.7072 27.9998C41.7199 28.0548 41.7316 28.1088 41.7422 28.1639C41.7443 28.1766 41.757 28.2379 41.7601 28.2506C41.7686 28.294 41.7771 28.3374 41.7845 28.3808C41.8977 29.001 41.9655 29.6286 42.0311 30.2551C42.4279 34.0575 42.6388 37.877 42.6629 41.7C42.6798 44.2971 42.61 46.8943 42.4555 49.4861L42.4364 49.4893C42.3835 49.4967 42.3317 49.4988 42.2787 49.5009L42.2406 49.4978C42.1771 49.4914 42.1136 49.4819 42.0501 49.4702C42.0237 49.465 41.9983 49.4586 41.9708 49.4533C41.9094 49.4343 41.848 49.4163 41.7877 49.394C41.6395 49.3401 41.4966 49.2755 41.3537 49.2067C41.3199 49.1887 41.286 49.1697 41.2521 49.1527C41.1622 49.103 41.0743 49.0511 40.9865 48.9982C40.1684 48.4998 39.3884 47.9283 38.6137 47.3663C37.0008 46.1968 35.4377 44.9617 33.8872 43.7108C33.7919 43.6335 33.6956 43.5563 33.6004 43.479C33.5591 43.4462 33.5189 43.4134 33.4776 43.3795C33.4554 43.3615 33.4342 43.3446 33.4131 43.3277C33.4194 43.333 33.4247 43.3372 33.4258 43.3383C33.4173 43.3308 33.4078 43.3234 33.3993 43.316C33.3982 43.315 33.3972 43.315 33.3961 43.3139C33.3771 43.298 33.3739 43.2959 33.3781 43.2991C33.212 43.1626 33.0405 43.0218 32.868 42.8811C31.4858 41.7571 30.2021 40.521 29.0718 39.143C29.058 39.125 29.0432 39.107 29.0294 39.089C28.9924 39.0425 28.9564 38.9959 28.9204 38.9493C28.8527 38.8615 28.786 38.7737 28.7193 38.6848C28.587 38.508 28.4579 38.3292 28.333 38.1471C28.2643 38.0487 28.1997 37.9471 28.1341 37.8466C28.061 37.6804 27.9901 37.5142 27.9214 37.347C27.3837 36.0442 26.9445 34.7033 26.5116 33.3624C26.3878 32.9782 26.2629 32.5951 26.1582 32.2056C26.1349 32.1199 26.1127 32.0342 26.0915 31.9485C26.0788 31.8966 26.0671 31.8447 26.0544 31.7939C26.0544 31.7929 26.0502 31.777 26.047 31.758C26.047 31.7357 26.0449 31.7124 26.0449 31.6902C26.0439 31.5381 26.0482 31.3859 26.0576 31.2341L26.0608 31.1875C26.0619 31.1822 26.0619 31.1738 26.064 31.1621C26.1074 30.7547 26.1846 30.3514 26.3264 29.9662C26.3444 29.9165 26.3656 29.8667 26.3846 29.817C26.3476 29.9122 26.3846 29.818 26.4048 29.7768C26.4503 29.6815 26.5 29.5884 26.554 29.4974C26.6016 29.418 26.6524 29.3418 26.7064 29.2666C26.7339 29.2296 26.7614 29.1925 26.791 29.1566C26.808 29.1365 26.8249 29.1153 26.8418 29.0952C26.8471 29.0888 26.8694 29.0645 26.8831 29.0497L26.8852 29.0476C26.9043 29.0285 26.9233 29.0095 26.9424 28.9915C27.0613 28.8778 27.1903 28.7751 27.3276 28.6845C27.371 28.656 27.4155 28.6295 27.4599 28.602C27.4631 28.5999 27.4684 28.5967 27.4747 28.5935C27.4694 28.5957 27.4652 28.5988 27.4578 28.602C27.4779 28.5925 27.497 28.5819 27.5171 28.5713C27.6229 28.5184 27.733 28.4718 27.8441 28.4306C27.9425 28.3946 28.042 28.3628 28.1425 28.3353C28.1711 28.3279 28.2008 28.3194 28.2293 28.312C28.2389 28.3099 28.2685 28.3025 28.2854 28.2993ZM37.6718 25.2503C37.657 25.2587 37.639 25.2693 37.639 25.2693C37.6485 25.263 37.6602 25.2566 37.6718 25.2503ZM41.4659 25.6207C41.4956 25.6567 41.5453 25.7466 41.4628 25.6175L41.4659 25.6207ZM40.8352 25.0227C40.8193 25.0164 40.8108 25.0121 40.8087 25.0111C40.8172 25.0142 40.8246 25.0174 40.833 25.0217C40.8341 25.0217 40.8341 25.0217 40.8352 25.0227ZM32.7198 27.6463C32.5812 27.5595 32.6817 27.6146 32.7198 27.6463V27.6463ZM31.3916 26.8801C31.6022 27.1627 31.7938 27.4601 31.978 27.7627C31.6737 27.6299 31.3607 27.5178 31.0413 27.4272C30.1036 27.1616 29.0136 27.0304 28.0103 27.1976C28.0399 27.1796 28.0685 27.1616 28.0992 27.1447C28.1034 27.1426 28.1097 27.1383 28.1161 27.1341C28.1447 27.1172 28.1764 27.1023 28.206 27.0886C28.2759 27.0537 28.3468 27.0198 28.4188 26.987C28.6781 26.8716 28.9617 26.7626 29.2443 26.7086C29.2623 26.7055 29.2803 26.7023 29.2887 26.7012C29.3268 26.6938 29.366 26.6875 29.4041 26.6811C29.4686 26.6705 29.5332 26.6621 29.5988 26.6547C29.7554 26.6367 29.9131 26.6282 30.0708 26.6282C30.0941 26.6282 30.1185 26.6271 30.1428 26.6271C30.1491 26.6282 30.1544 26.6282 30.1597 26.6293C30.2391 26.6356 30.3185 26.6398 30.3979 26.6483C30.5555 26.6652 30.7122 26.6906 30.8678 26.7235C30.891 26.7287 31.0286 26.7743 31.0561 26.769C31.0572 26.769 31.0572 26.769 31.0583 26.77C31.0964 26.7806 31.1345 26.7922 31.1726 26.8049C31.2456 26.8282 31.3186 26.8526 31.3916 26.8801Z" fill="#6D150E"/>
<path d="M33.4006 43.316C33.4049 43.3192 33.4102 43.3234 33.4144 43.3277C33.4017 43.3171 33.3837 43.3033 33.3795 43.2991C33.3858 43.3044 33.3932 43.3107 33.4006 43.316ZM39.249 49.248C39.2478 49.2467 39.2464 49.2456 39.2448 49.2448C39.1675 49.1824 39.2204 49.2247 39.249 49.248ZM40.2618 25.2492C40.2396 25.2354 40.2174 25.2217 40.1962 25.2068C40.2068 25.2153 40.2269 25.2291 40.2639 25.2513L40.2618 25.2492ZM27.4761 28.5935C27.4983 28.5819 27.5248 28.5692 27.4761 28.5935V28.5935ZM66.0969 38.9959C65.7688 38.1725 65.1581 37.4274 64.3707 37.0083C63.5304 36.5607 62.5927 36.4517 61.6688 36.6792C60.8634 36.8782 60.1152 37.3671 59.6336 38.0466C59.6029 38.09 59.5733 38.1355 59.5447 38.181C59.5267 38.1947 59.5077 38.2085 59.4907 38.2233C59.0716 37.5153 58.5446 36.8813 57.8461 36.3998C56.539 35.5002 54.6256 35.2293 53.3831 36.3913C53.2209 36.544 53.0738 36.712 52.9439 36.893C52.6265 37.1739 52.3539 37.5015 52.1353 37.8645C51.3225 39.2097 51.2262 40.9041 51.7046 42.3815C51.9543 43.1509 52.3755 43.8611 52.9216 44.4569C53.2413 44.8062 53.6117 45.1046 53.9842 45.3946C54.0742 45.4644 54.1662 45.5332 54.2583 45.601C54.2901 45.6518 54.3218 45.7026 54.3546 45.7523C54.852 46.5027 55.4733 47.2361 56.2385 47.7325C56.2512 47.7674 56.2639 47.8034 56.2755 47.8393C56.2861 47.8711 56.3231 47.9494 56.3157 47.9801C56.3157 47.978 56.2967 47.8859 56.3083 47.9473L56.321 48.0087C56.3489 48.1587 56.361 48.3112 56.357 48.4638C56.357 48.4669 56.3559 48.4775 56.3549 48.4881C56.3528 48.5029 56.3517 48.5177 56.3517 48.523C56.3401 48.6236 56.32 48.7241 56.2935 48.8215C56.267 48.921 56.2342 49.0183 56.1972 49.1146C56.1887 49.1379 56.1485 49.2342 56.1612 49.2046C56.1411 49.2512 56.1199 49.2977 56.0998 49.3443C56.0025 49.5591 55.9019 49.7719 55.812 49.9899C55.7326 50.1804 55.667 50.3751 55.6267 50.5783C55.5823 50.8027 55.7167 51.0154 55.885 51.1509C56.0776 51.3054 56.2988 51.3594 56.539 51.3054C57.4206 51.1096 58.1191 50.5212 58.7002 49.8587C59.2611 49.2205 59.7215 48.5008 60.2369 47.8256C60.3258 47.7737 60.4147 47.7198 60.5014 47.6668C60.9047 47.4171 61.292 47.1398 61.6677 46.8519C62.5345 46.1873 63.3558 45.4581 64.1178 44.676C64.7528 44.023 65.428 43.3181 65.8439 42.4969C65.9995 42.1889 66.0958 41.8629 66.1403 41.5327C66.1455 41.519 66.1519 41.5063 66.1572 41.4925C66.4631 40.6956 66.4101 39.7822 66.0969 38.9959ZM63.5135 37.6825C63.5177 37.6846 63.5219 37.6857 63.5262 37.6867C63.5209 37.6857 63.5166 37.6836 63.5114 37.6814C63.5114 37.6825 63.5124 37.6825 63.5135 37.6825ZM63.8839 37.8243C63.8839 37.8243 63.8849 37.8243 63.8849 37.8254C63.8881 37.8275 63.8924 37.8286 63.8966 37.8307C63.9019 37.8328 63.9061 37.8349 63.9103 37.8381C63.9114 37.8391 63.9135 37.8402 63.9146 37.8413C63.8225 37.8021 63.8267 37.801 63.8532 37.8127C63.8627 37.8148 63.8733 37.819 63.8839 37.8243ZM64.231 38.0476C64.2405 38.055 64.2501 38.0624 64.2596 38.0709L64.2638 38.0751C64.2818 38.0931 64.2786 38.0974 64.2151 38.036C64.2204 38.0402 64.2257 38.0434 64.231 38.0476ZM64.0141 38.7345C64.0289 38.7461 64.0448 38.7567 64.0596 38.7684C64.0617 38.7705 64.0638 38.7726 64.0659 38.7737C63.9654 38.7102 63.9813 38.7144 64.0141 38.7345ZM64.6734 39.5399C64.6829 39.5568 64.6925 39.5716 64.703 39.5865C64.703 39.5875 64.7041 39.5886 64.7041 39.5886C64.6544 39.5251 64.6575 39.5208 64.6734 39.5399ZM55.4045 37.1036C55.4288 37.1036 55.4447 37.1036 55.4045 37.1036V37.1036ZM55.3738 37.1025C55.3685 37.1025 55.3632 37.1015 55.3611 37.1004C55.3643 37.1015 55.3696 37.1015 55.3738 37.1025ZM55.6215 36.8581C55.6352 36.8591 55.6479 36.8581 55.6606 36.8581C55.6649 36.8581 55.668 36.8591 55.6723 36.8591C55.6162 36.8665 55.6077 36.8612 55.6215 36.8581ZM55.9929 36.9163C55.994 36.9163 55.994 36.9163 55.995 36.9173C55.9559 36.9142 55.9337 36.9099 55.9263 36.9067C55.9485 36.9099 55.9707 36.9142 55.9929 36.9163ZM53.6625 41.4396C53.6593 41.4248 53.6561 41.41 53.6519 41.3962C53.6519 41.3941 53.6508 41.393 53.6508 41.3909C53.6963 41.5179 53.6752 41.4809 53.6625 41.4396ZM57.5847 48.3082C57.6397 48.3209 57.6958 48.3325 57.7519 48.3421L57.6217 48.4691C57.6101 48.4161 57.5974 48.3622 57.5847 48.3082ZM58.9796 47.1356C58.8949 47.1737 58.8081 47.2096 58.7203 47.2382C58.6261 47.27 58.5287 47.2943 58.4313 47.3165C58.4229 47.3186 58.4133 47.3197 58.4049 47.3218C58.2495 47.3464 58.0923 47.3581 57.935 47.3567C57.9244 47.3578 57.9138 47.3578 57.9032 47.3567C57.8969 47.3557 57.8905 47.3557 57.8842 47.3546C57.8747 47.3546 57.8651 47.3536 57.8567 47.3546C57.863 47.3536 57.8662 47.3536 57.8725 47.3536C57.8239 47.3483 57.7762 47.344 57.7275 47.3366C57.6482 47.325 57.5688 47.3081 57.4894 47.2901C57.4968 47.2932 57.5021 47.2954 57.5116 47.2985C57.5011 47.2943 57.4905 47.2911 57.4799 47.288C57.4714 47.2858 57.464 47.2848 57.4556 47.2827C57.4344 47.2774 57.4122 47.2689 57.4026 47.2636C57.3667 47.252 57.3317 47.2403 57.2968 47.2266C57.2672 47.216 57.2375 47.2033 57.209 47.1916C56.9095 46.4974 56.5168 45.8423 56.0924 45.2179C55.6395 44.5511 55.1463 43.9119 54.6954 43.243C54.47 42.9086 54.2541 42.5667 54.0594 42.2122C54.034 42.1667 54.0096 42.1212 53.9853 42.0746C53.9747 42.0545 53.9652 42.0354 53.9546 42.0153C53.9239 41.9571 53.9694 42.045 53.9715 42.0481C53.9133 41.9677 53.8784 41.8576 53.8371 41.7677C53.7556 41.5878 53.6805 41.4057 53.6138 41.2184C53.5979 41.139 53.582 41.0607 53.5672 40.9813C53.5376 40.8025 53.5122 40.631 53.4921 40.4585C53.4656 40.2136 53.4568 39.9671 53.4656 39.7209C53.4667 39.7039 53.4667 39.6859 53.4677 39.669C53.4709 39.579 53.4646 39.6828 53.4656 39.6944C53.4603 39.651 53.473 39.5991 53.4773 39.5547C53.5101 39.2192 53.5757 38.8858 53.6773 38.5652C53.7016 38.489 53.7281 38.4128 53.7567 38.3387C53.7598 38.3302 53.7736 38.2974 53.7831 38.2731C53.8588 38.0982 53.9491 37.93 54.053 37.7703C54.0943 37.7068 54.1387 37.6455 54.1842 37.5851C54.2075 37.5555 54.2308 37.5259 54.2551 37.4973L54.2858 37.4603L54.307 37.4359C54.3112 37.4317 54.3134 37.4285 54.3165 37.4253L54.3504 37.3915C54.361 37.3809 54.3726 37.3703 54.3843 37.3608C54.4001 37.3512 54.4171 37.3417 54.4329 37.3333H54.434C54.452 37.3258 54.4689 37.3163 54.4859 37.3089C54.5663 37.2719 54.6488 37.238 54.7335 37.2084C54.8118 37.1819 54.8912 37.1586 54.9716 37.1396C54.9738 37.1396 54.9759 37.1385 54.979 37.1385C54.9833 37.1364 54.9917 37.1343 55.0044 37.1322C55.0097 37.1311 55.015 37.1311 55.0203 37.1301C55.0235 37.129 55.0256 37.1279 55.0277 37.1269C55.0267 37.1279 55.0246 37.129 55.0235 37.1301C55.0616 37.1248 55.0997 37.1195 55.1378 37.1152C55.2193 37.1068 55.3018 37.1057 55.3833 37.1047C55.396 37.1057 55.4098 37.1057 55.4204 37.1068C55.4733 37.1121 55.5262 37.1184 55.5781 37.1269C55.6172 37.1332 55.6564 37.1406 55.6945 37.1491C55.7061 37.1512 55.7178 37.1544 55.7284 37.1576C55.8056 37.1936 55.8966 37.2115 55.976 37.2444C56.013 37.2602 56.049 37.2761 56.085 37.293C56.0914 37.2962 56.1009 37.3015 56.1094 37.3057C56.1845 37.3512 56.2618 37.3946 56.3348 37.4444C56.3739 37.4708 56.412 37.4984 56.4501 37.5259C56.4512 37.5269 56.4523 37.5269 56.4523 37.528C56.4755 37.5597 56.5253 37.5873 56.5539 37.6116C56.5898 37.6433 56.6248 37.6751 56.6586 37.709C56.7274 37.7746 56.793 37.8434 56.8565 37.9153C56.865 37.9238 56.8724 37.9333 56.8798 37.9429C56.9063 37.9778 56.9349 38.0106 56.9613 38.0455C57.0798 38.2032 57.1846 38.3704 57.2809 38.544C57.2873 38.5546 57.3042 38.5853 57.3169 38.6085C57.337 38.6456 57.354 38.6847 57.373 38.7218C57.4196 38.8202 57.463 38.9186 57.5042 39.0192C57.6683 39.4161 57.7942 39.8267 57.9085 40.2394C57.9646 40.4426 58.0175 40.6469 58.0704 40.8512C58.0821 40.8977 58.1054 40.9422 58.1329 40.9845C58.1392 41.0385 58.1466 41.0935 58.153 41.1475C58.1816 41.3846 58.3551 41.5761 58.5605 41.682C58.7256 41.7677 59.0325 41.8386 59.1881 41.6851C59.3711 41.5042 59.5161 41.3105 59.641 41.103C59.7765 41.2163 59.9511 41.2883 60.1141 41.2957C60.3617 41.3084 60.6147 41.1528 60.584 40.8723C60.5766 40.8014 60.5702 40.7295 60.5692 40.6575C60.5681 40.6215 60.5702 40.5866 60.5692 40.5506V40.5474C60.5692 40.5442 60.5702 40.5421 60.5702 40.539C60.5872 40.3993 60.6094 40.2617 60.6475 40.1262C60.6665 40.0585 60.6888 39.9918 60.7131 39.9262C60.7163 39.9198 60.7491 39.8447 60.7385 39.8659C60.7427 39.8574 60.7459 39.851 60.7459 39.85C60.8115 39.7113 60.8899 39.579 60.9777 39.4531C61.0475 39.3526 61.1237 39.2351 61.2158 39.1546C61.2232 39.1483 61.2306 39.1419 61.2349 39.1377C61.256 39.1165 61.2783 39.0964 61.2994 39.0753C61.3566 39.0224 61.4148 38.9716 61.4762 38.9229C61.6073 38.8176 61.7468 38.7231 61.8932 38.6403C61.8974 38.6382 61.9027 38.635 61.908 38.6308C61.9672 38.5842 62.0646 38.5577 62.1334 38.5302C62.2286 38.4921 62.3271 38.4604 62.4266 38.4329C62.4869 38.4403 62.5462 38.4487 62.6065 38.4614C62.6403 38.4678 62.6742 38.4752 62.7081 38.4837C62.7112 38.4847 62.7134 38.4847 62.7165 38.4858C62.8351 38.5302 62.9547 38.5683 63.07 38.6223C63.0626 38.6181 63.0563 38.6138 63.0478 38.6085C63.0774 38.6265 63.1092 38.6414 63.1388 38.6583C63.2087 38.6985 63.2775 38.7419 63.3441 38.7874C63.3865 38.817 63.4288 38.8477 63.4701 38.8784C63.4934 38.8985 63.5166 38.9186 63.5389 38.9388C63.6278 39.0192 63.705 39.1113 63.7876 39.197C63.8084 39.2131 63.8269 39.2319 63.8426 39.2531L63.8532 39.2637C63.849 39.2605 63.8479 39.2584 63.8437 39.2552C63.8638 39.2806 63.8828 39.306 63.9019 39.3325C63.9357 39.379 63.9686 39.4266 64.0003 39.4753C64.0384 39.5335 64.0744 39.5928 64.1083 39.6531C64.1199 39.6754 64.1315 39.7008 64.1453 39.723C64.1527 39.7378 64.1601 39.7526 64.1665 39.7674C64.2236 39.8923 64.2723 40.0214 64.3125 40.1527C64.3178 40.1696 64.34 40.2924 64.3538 40.3135C64.3538 40.3146 64.3538 40.3156 64.3548 40.3167C64.389 40.4949 64.4053 40.6761 64.4035 40.8575C64.4035 40.8819 64.4046 40.9125 64.4025 40.939C64.4004 40.9485 64.3982 40.957 64.3972 40.9644C64.3898 41.0321 64.3792 41.0999 64.3665 41.1665C64.339 41.3062 64.2977 41.4396 64.249 41.5729C64.2458 41.5814 64.2437 41.5888 64.2416 41.5941C64.2384 41.5994 64.2353 41.6068 64.231 41.6153C64.212 41.6544 64.194 41.6936 64.1749 41.7328C64.1294 41.8227 64.0786 41.9106 64.0246 41.9963C63.94 42.1317 63.8458 42.2609 63.7474 42.3868C63.6923 42.4556 63.6362 42.5233 63.5791 42.5889C63.5505 42.6218 63.5209 42.6556 63.4912 42.6874C63.4828 42.6958 63.4309 42.753 63.4119 42.7731C63.1558 43.0409 62.8869 43.298 62.6234 43.5584C62.5451 43.6346 62.4668 43.7118 62.3885 43.7891C62.1734 43.9649 61.9624 44.1455 61.7556 44.331C61.1015 44.9205 60.4866 45.5555 59.9109 46.2222C59.6008 46.526 59.2907 46.8308 58.9796 47.1356Z" fill="#6D150E"/>
<path d="M57.8725 47.3535C57.8768 47.3535 57.8799 47.3546 57.8842 47.3546C57.9011 47.3557 57.918 47.3567 57.9339 47.3567H57.935C57.971 47.3535 57.9794 47.343 57.8725 47.3535ZM63.8437 39.2541L63.8415 39.252C63.8225 39.234 63.8045 39.2149 63.7865 39.197C63.7833 39.1938 63.795 39.2086 63.8437 39.2541ZM63.0753 38.6233C63.0732 38.6223 63.0711 38.6223 63.07 38.6212C63.2065 38.7048 63.1187 38.6434 63.0753 38.6233ZM55.0235 37.129H55.0203C55.0087 37.1332 54.9907 37.1353 54.979 37.1374C54.9621 37.1448 54.9917 37.1501 55.0235 37.129ZM57.4026 47.2636C57.4153 47.2678 57.427 47.2721 57.4397 47.2763C57.4524 47.2805 57.4661 47.2837 57.4799 47.2879C57.4831 47.289 57.4862 47.289 57.4905 47.29C57.4026 47.2562 57.3878 47.2551 57.4026 47.2636Z" fill="#6D150E"/>
</svg>
