<svg xmlns="http://www.w3.org/2000/svg" viewBox="0 0 480 480"><path d="M479.848 79.216a8.308 8.308 0 00-.32-1.6 7.6773 7.6773 0 00-.64-1.488c-.128-.224-.152-.488-.304-.704s-.344-.304-.496-.488a8.1124 8.1124 0 00-1.192-1.144 7.7335 7.7335 0 00-1.216-.8 7.561 7.561 0 00-1.4-.552 8.9971 8.9971 0 00-1.6-.32c-.24 0-.448-.136-.696-.136H8c-.242.036-.483.084-.72.144-.521.052-1.036.157-1.536.312-.496.141-.979.329-1.44.56-.421.23-.819.498-1.192.8-.44.34-.842.726-1.2 1.152-.152.184-.36.288-.496.488s-.176.48-.304.704c-.265.472-.48.971-.64 1.488a8.308 8.308 0 00-.32 1.6c0 .264-.152.496-.152.8v319.984c0 4.418 3.582 8 8 8h464c4.418 0 8-3.582 8-8v-320c0-.272-.128-.504-.152-.8zm-33.544 8.8L240 230.296 33.696 88.016h412.608zm17.696 304H16V95.256L235.456 246.6c2.735 1.888 6.353 1.888 9.088 0L464 95.256v296.76z"/></svg>