<svg width="150" height="125" viewBox="0 0 150 125" fill="none" xmlns="http://www.w3.org/2000/svg">
<path d="M131.137 67.5466C130.437 65.8409 129.537 64.2128 128.618 62.6165C127.426 60.5421 126.149 58.5189 124.822 56.5275C123.374 54.3544 121.864 52.2218 120.284 50.144C118.772 48.1561 117.199 46.207 115.507 44.369C114.196 42.9437 112.803 41.5414 111.207 40.432C111.06 40.3297 110.912 40.2326 110.76 40.1392C110.568 40.0192 110.358 39.9434 110.131 39.931C109.963 39.9222 109.716 39.9398 109.589 40.0668C109.513 40.1427 109.448 40.2238 109.39 40.3067C109.101 39.8675 108.811 39.4283 108.527 38.9838C108.399 38.7827 108.27 38.5799 108.143 38.377C107.889 37.9713 107.25 37.6309 106.774 37.8249C106.509 37.9325 106.381 38.1265 106.358 38.347C105.906 38.1213 105.43 37.9378 104.925 37.8126C104.059 37.5956 103.749 38.6698 104.334 39.1866C106.01 40.6718 107.206 42.307 108.474 44.152C110.05 46.4433 111.48 48.8316 112.881 51.2323C115.567 55.8343 118.089 60.551 120.986 65.0277C115.914 63.9006 110.861 62.6959 105.828 61.4135C102.006 60.4381 98.1961 59.4168 94.3985 58.3514C91.4422 56.8944 88.5776 55.261 85.7024 53.6506C82.4692 51.8391 79.2166 50.0487 75.8317 48.5371C72.5685 47.0783 69.1818 45.9671 65.7087 45.1257C61.687 44.152 57.5983 43.5382 53.4972 43.0143C51.4458 42.1553 49.3591 41.3792 47.2266 40.7195C40.0158 38.4899 32.528 37.4051 25.0579 36.4738C24.1336 36.3591 23.2094 36.2462 22.2851 36.1316C21.8617 36.0804 21.4049 36.2639 21.3731 36.7419C21.3396 37.2534 21.7453 37.608 22.1651 37.8143C23.922 38.6786 25.7317 39.4089 27.5732 40.0421C25.7599 39.9681 23.9449 39.9681 22.1281 40.0615C21.2444 40.1056 20.3624 40.1744 19.4822 40.2609C18.1646 40.3914 19.0765 42.1359 20.1137 42.0336C27.134 41.3439 34.1737 42.0935 41.0441 43.5929C47.9762 45.1045 54.7196 47.3482 61.4224 49.6448C63.2816 50.2816 65.1407 50.9166 67.0016 51.548C72.6531 54.6119 78.3011 57.6599 84.2437 60.1435C90.9694 62.9569 97.9404 65.1829 105.044 66.8198C110.735 68.1315 116.509 69.0503 122.326 69.5698C119.631 71.1855 116.938 72.803 114.244 74.424C109.381 77.3503 104.52 80.2819 99.6531 83.2029C97.3971 84.5576 95.1393 85.9105 92.878 87.2546C91.9837 87.7873 93.3789 89.2266 94.1621 88.8297C98.3655 86.6936 102.553 84.5241 106.762 82.3986C111.517 79.9961 116.292 77.6237 121.144 75.4224C123.365 74.4152 125.604 73.4362 127.891 72.5842C128.486 72.362 128.422 71.6141 128.006 71.2455C127.509 70.8045 127.053 70.3494 126.625 69.8802C127.165 69.9102 127.706 69.9349 128.246 69.9578C128.454 70.24 128.659 70.524 128.853 70.8151C128.913 70.9103 128.973 71.0038 129.033 71.099C129.287 71.5047 129.925 71.8452 130.401 71.6511C130.893 71.4501 130.918 70.9544 130.671 70.5417C130.444 70.1815 130.215 69.8229 129.983 69.4657C130.015 69.3263 130.01 69.1782 129.96 69.0423C129.839 68.6913 129.564 68.462 129.241 68.3368C129.123 68.1586 129.006 67.9805 128.886 67.8023C128.921 67.633 128.89 67.4407 128.826 67.2785C128.92 67.3843 129.011 67.4901 129.107 67.5942C129.255 67.7582 129.403 67.924 129.551 68.0881C129.629 68.1745 129.735 68.2539 129.853 68.3191C130.006 68.4091 130.177 68.4691 130.35 68.4814C130.569 68.5079 130.782 68.4708 130.941 68.335C131.024 68.2645 131.08 68.1886 131.119 68.1092C131.207 67.9523 131.223 67.7565 131.137 67.5466ZM122.792 63.0151C123.49 63.8988 124.192 64.7808 124.893 65.6627C124.799 65.601 124.709 65.5357 124.619 65.4687C124.579 65.4387 124.538 65.407 124.498 65.377C124.494 65.3734 124.492 65.3734 124.489 65.3699C124.383 65.2817 124.279 65.1935 124.177 65.1018C123.778 64.7437 123.406 64.3557 123.055 63.95C122.743 63.5901 122.478 63.2532 122.099 62.7276C121.725 62.2081 121.368 61.6769 121.028 61.1348C120.7 60.6162 120.386 60.0888 120.077 59.5561C120.977 60.7132 121.882 61.8651 122.792 63.0151ZM116.378 47.8333C116.385 47.8403 116.391 47.8491 116.398 47.858C116.35 47.7998 116.292 47.7274 116.378 47.8333ZM111.589 42.7391C112.321 43.383 113.013 44.0709 113.683 44.7782C114.463 45.6002 115.214 46.4504 115.944 47.3164C116.036 47.4258 116.128 47.5334 116.22 47.6428C116.265 47.6974 116.311 47.7521 116.357 47.8086C116.377 47.8315 116.394 47.8544 116.414 47.8756C116.599 48.1014 116.784 48.3272 116.966 48.5547C117.357 49.0415 117.745 49.5337 118.128 50.0275C119.714 52.0772 121.226 54.1833 122.677 56.33C123.873 58.0991 125.029 59.8983 126.126 61.731C124.669 60.0341 123.222 58.3267 121.794 56.6051C121.684 56.4746 121.577 56.3423 121.467 56.2118C121.42 56.1536 121.372 56.0971 121.324 56.0389C121.238 55.9348 121.457 56.1994 121.37 56.0953L121.268 55.9719C121.049 55.7073 120.832 55.4427 120.613 55.1764C120.19 54.6595 119.767 54.141 119.347 53.6224C118.493 52.5693 117.645 51.511 116.805 50.4456C115.204 48.4153 113.628 46.3639 112.108 44.2737C112.02 44.152 111.932 44.0285 111.842 43.9068C111.611 43.5752 111.381 43.2454 111.152 42.912C111.138 42.8661 111.124 42.822 111.111 42.7762L111.074 42.6386V42.6368C111.069 42.6157 111.066 42.5927 111.062 42.5786C111.053 42.5363 111.046 42.4957 111.039 42.4534C111.027 42.3846 111.018 42.3176 111.009 42.2488L111.03 42.2646L111.088 42.3123C111.26 42.4534 111.425 42.5945 111.589 42.7391ZM63.211 46.2881C66.6453 46.9919 70.0249 47.9267 73.2828 49.2267C76.703 50.5938 79.9663 52.3065 83.1854 54.0898C84.4518 54.7918 85.7148 55.5027 86.9813 56.2082C86.1734 55.9684 85.3673 55.7267 84.5594 55.4833C78.825 53.7476 73.1329 51.8902 67.4602 49.9676C67.3597 49.9129 67.2574 49.8582 67.1568 49.8018C64.4598 48.3342 61.747 46.879 58.99 45.5243C60.4011 45.7519 61.8087 46.0006 63.211 46.2881ZM57.2314 46.4856C55.0424 45.7589 52.8463 45.0551 50.6379 44.3919C51.5199 44.4977 52.4018 44.6071 53.2838 44.7182C54.612 45.2791 55.9279 45.8683 57.2314 46.4856ZM46.1065 42.113C45.729 42.0653 45.3533 42.0195 44.9776 41.9701C39.4584 41.2645 33.9074 40.3914 28.6139 38.6628C34.0203 39.3789 39.4143 40.2503 44.6724 41.6967C45.154 41.829 45.6302 41.9683 46.1065 42.113ZM86.5544 59.3215C83.0319 57.9157 79.6135 56.3158 76.2427 54.6137C78.2094 55.2487 80.1779 55.8731 82.1553 56.4799C86.1046 57.6934 90.0681 58.8558 94.0457 59.9724C97.0496 61.4452 100.138 62.7382 103.303 63.8283C107.568 65.2984 111.946 66.4157 116.394 67.1691C113.325 66.751 110.271 66.222 107.24 65.5833C100.178 64.0925 93.2574 61.9975 86.5544 59.3215ZM116.818 75.2389C118.506 74.2229 120.192 73.2069 121.882 72.1944C122.878 71.5965 123.877 70.9985 124.873 70.4005C125.147 70.7163 125.429 71.025 125.72 71.3231C122.7 72.4978 119.744 73.8437 116.818 75.2389ZM128.073 66.6011C127.89 66.333 127.706 66.0667 127.521 65.8003C127.793 66.109 128.064 66.4159 128.338 66.7228C128.253 66.6734 128.165 66.6329 128.073 66.6011Z" fill="#DA291C"/>
</svg>
