<svg width="84" height="70" viewBox="0 0 84 70" fill="none" xmlns="http://www.w3.org/2000/svg">
<path d="M55.4274 42.1545C53.8647 41.1084 52.303 40.0624 50.7463 39.0084C49.2774 38.0127 47.8135 37.0101 46.3595 35.9937C47.4016 36.695 48.4447 37.3924 49.4928 38.0828C50.9972 39.0746 52.5085 40.0554 54.0257 41.0274C54.2134 41.1479 54.4021 41.2674 54.5897 41.388C54.7557 41.4936 55.0599 41.5875 55.2367 41.4413C55.4125 41.2951 55.378 41.0719 55.2664 40.896C55.0955 40.6274 54.9236 40.3587 54.7527 40.089C54.6115 39.8678 54.2539 39.6732 53.9911 39.7739C53.9131 39.8036 53.8588 39.847 53.8222 39.8994C52.7149 39.1872 51.6096 38.472 50.5082 37.749C48.9957 36.7552 47.4896 35.7516 45.9901 34.7382C45.7797 34.596 45.5713 34.4518 45.3609 34.3095L49.9175 33.6368C50.2208 33.5924 50.524 33.547 50.8263 33.5025C50.9833 33.5963 51.169 33.6447 51.3251 33.5707C51.4693 33.5025 51.6145 33.4334 51.7597 33.3652C52.7762 33.2151 53.7926 33.0649 54.809 32.9158H54.8169V32.9148H54.8179C54.9414 32.897 55.0609 32.8595 55.133 32.7478C55.1982 32.6471 55.2022 32.5009 55.1577 32.3922C55.0451 32.1176 54.7537 31.923 54.4544 31.9359H54.4534C53.9437 31.9576 53.434 31.9803 52.9243 32.0031C53.033 31.8638 53.0172 31.6405 52.9115 31.4904C52.7307 31.2346 52.4472 31.12 52.145 31.1812C50.1862 31.5773 48.2264 31.9744 46.2677 32.3705C45.5174 32.4241 44.7676 32.485 44.0185 32.5533C44.4561 32.0199 44.8927 31.4855 45.3263 30.9481C46.4208 29.5929 47.5044 28.2288 48.5801 26.8587C49.6518 25.4956 50.7166 24.1275 51.7815 22.7584C51.9158 22.5856 52.0501 22.4137 52.1845 22.2408C52.2556 22.15 52.2378 21.9969 52.1993 21.8991C52.1489 21.7697 52.0314 21.6393 51.9138 21.5682C51.6827 21.4279 51.3844 21.3716 51.1898 21.5948C51.1888 21.5958 51.1878 21.5968 51.1878 21.5978C51.1868 21.5968 51.1858 21.5968 51.1848 21.5958C51.173 21.6106 51.1621 21.6254 51.1503 21.6403C50.6643 22.1993 50.1773 22.7574 49.6913 23.3155C49.5911 23.2674 49.4815 23.2418 49.3703 23.2405C48.7233 23.2355 48.0595 23.4864 47.6041 23.9507C47.5152 24.0406 47.4658 24.1196 47.4797 24.252C47.4935 24.3794 47.5794 24.5206 47.6723 24.6056C47.7829 24.7053 47.9212 24.7942 48.0714 24.818C47.5952 25.4936 47.1152 26.1653 46.6292 26.833C45.756 27.8366 44.8818 28.8392 44.0096 29.8428C43.7943 30.0897 43.5799 30.3367 43.3646 30.5836C43.3616 29.6245 43.3458 28.6654 43.3142 27.7062C43.246 25.6368 43.1048 23.5684 42.8628 21.5119C42.8529 21.4239 42.8193 21.3429 42.7719 21.2698C42.7502 20.8461 42.7294 20.4223 42.7057 19.9986V19.9976C42.6741 19.4504 41.6132 19.1244 41.6053 19.8129V19.8139C41.5984 20.5221 41.5866 21.2303 41.5757 21.9386C41.2843 23.2138 41.2152 24.5394 41.2112 25.8423C41.2073 27.2192 41.2912 28.5952 41.3702 29.9702C41.3594 30.2725 41.3505 30.5747 41.3386 30.877C41.3307 31.0933 41.3208 31.3096 41.312 31.526C39.9014 30.5421 38.4978 29.5504 37.1001 28.5498C35.6355 27.5006 34.1782 26.4413 32.7281 25.3721C32.5484 25.2397 32.3686 25.1074 32.1898 24.974C32.0051 24.8377 31.6761 24.7824 31.5033 24.9612C31.3304 25.1419 31.444 25.4304 31.609 25.5776C33.0136 26.835 34.4528 28.0549 35.9177 29.2412C36.9211 30.0528 37.9353 30.851 38.9601 31.6356C37.8231 30.8444 36.6862 30.0542 35.5423 29.2718C34.7225 28.7108 33.8996 28.1547 33.0719 27.6055C32.6679 27.3378 32.2629 27.0701 31.8559 26.8064C31.5734 26.6236 31.2109 26.4498 30.8701 26.5752C30.5748 26.6839 30.4878 27.0098 30.6153 27.2825C30.799 27.6776 31.2712 27.9245 31.6761 27.7112C31.6821 27.7082 31.688 27.7033 31.6929 27.6993C31.7848 27.7596 31.8777 27.8198 31.9705 27.8801C32.3636 28.1379 32.7548 28.3977 33.146 28.6594C33.9273 29.182 34.7057 29.7104 35.4811 30.2428C36.8422 31.1773 38.1965 32.1216 39.5507 33.0649C38.3032 33.2398 37.0596 33.4423 35.8219 33.6833C35.5947 33.7277 35.3675 33.7732 35.1403 33.8196C34.6612 33.8927 34.1821 33.9707 33.705 34.0557C31.9448 34.3678 30.1984 34.7629 28.4945 35.3052C28.2248 35.3911 28.1982 35.7201 28.3444 35.9265C28.5093 36.1596 28.8234 36.3266 29.1109 36.2347C29.664 36.0579 30.2231 35.8969 30.7852 35.7497C30.9442 35.8534 31.1358 35.8929 31.3344 35.8514C31.3344 35.8524 31.3354 35.8524 31.3354 35.8534C31.3423 35.8514 31.3492 35.8495 31.3571 35.8475C31.5102 35.8149 31.6643 35.7843 31.8174 35.7527C31.8243 35.7744 31.8322 35.7942 31.8421 35.8139C31.9567 36.0381 32.2491 36.2475 32.5138 36.209C34.7906 35.8732 37.0684 35.5363 39.3453 35.2005C38.5007 36.1695 37.6572 37.1395 36.8126 38.1095C35.6184 39.4806 34.4242 40.8526 33.2309 42.2236L32.7775 42.7452C32.7034 42.8301 32.7271 42.9951 32.7627 43.0869C32.8131 43.2163 32.9306 43.3467 33.0482 43.4178C33.2744 43.5581 33.5717 43.6154 33.7663 43.3922C33.9658 43.162 34.1663 42.9328 34.3669 42.7027C34.4498 42.758 34.5447 42.8034 34.6415 42.8173C34.7511 42.8331 34.921 42.8449 35.006 42.757C36.2259 41.4956 37.4211 40.2105 38.5926 38.9037C39.4431 37.9554 40.2817 36.9963 41.1105 36.0283C41.0127 37.9564 40.902 39.8836 40.7766 41.8087C40.6422 43.8623 40.4931 45.914 40.3281 47.9656L40.3252 47.9873H40.3262C40.3024 48.2767 40.4931 48.5454 40.7697 48.6422C40.8971 48.6867 41.0927 48.7034 41.2359 48.6412C41.2013 49.0571 41.1668 49.4719 41.1302 49.8868C41.1045 50.1762 41.2981 50.4449 41.5737 50.5417C41.636 50.5634 41.7199 50.5783 41.8059 50.5802C41.9955 50.5842 42.198 50.521 42.2158 50.3125C42.5487 46.555 42.8796 42.7975 43.1018 39.0321C43.168 37.9011 43.2233 36.7701 43.2678 35.6381C43.7666 35.9799 44.2664 36.3197 44.7682 36.6575C46.3259 37.7055 47.8985 38.7328 49.4957 39.7206C51.0861 40.7034 52.7011 41.6458 54.3497 42.5288C54.5552 42.6385 54.7616 42.7481 54.9671 42.8558C54.968 42.8568 54.97 42.8578 54.971 42.8588H54.972C55.1054 42.9289 55.2347 42.9921 55.3898 42.9842C55.4975 42.9793 55.6397 42.9319 55.697 42.8301C55.8393 42.5733 55.6358 42.2937 55.4274 42.1545Z" fill="#E04D42"/>
</svg>
