<svg width="150" height="125" viewBox="0 0 150 125" fill="none" xmlns="http://www.w3.org/2000/svg">
<path d="M127.537 31.4257C127.438 31.0482 127.106 30.7378 126.748 30.5967C120.716 28.1978 114.075 27.725 107.714 28.9121C105.162 29.3884 102.652 30.1469 100.248 31.1593C96.7286 32.551 93.4424 34.5372 90.6396 37.0649C89.4772 38.1126 88.3659 39.2556 87.3764 40.4903C86.4292 41.6051 85.5102 42.7922 84.7711 44.0658C84.1608 40.3475 83.0178 36.7121 81.3827 33.3219C79.1178 28.6299 75.9463 24.1602 71.5772 21.2162C69.3176 19.694 66.7494 18.6692 64.07 18.1841C61.4012 17.7026 58.6548 17.7326 55.9702 18.0783C50.3345 18.805 45.0464 20.83 39.6753 22.5727C34.3342 24.3066 28.598 25.8641 22.9624 24.9998C22.2498 24.8904 21.546 24.7423 20.8492 24.5606C20.3183 24.423 19.7715 24.8746 20.0308 25.4284C20.3201 26.0476 20.6341 26.6526 20.9657 27.2488C20.7893 27.2311 20.6147 27.2153 20.4383 27.1976C20.1155 27.1659 19.745 27.1976 19.6092 27.5469C19.4699 27.9014 19.6815 28.2189 19.9073 28.48C22.8425 31.8949 26.1639 34.9552 29.7657 37.654C33.3394 40.3316 37.2041 42.6158 41.2505 44.5014C45.3233 46.3976 49.599 47.8652 53.9752 48.8812C58.325 49.8919 62.7877 50.437 67.2538 50.4952C69.7374 50.5287 72.2122 50.3558 74.6904 50.2129C75.9199 50.1424 77.1546 50.0807 78.3893 50.0771C79.6646 50.2341 80.9382 50.4034 82.2099 50.5939C82.3457 50.6151 82.4816 50.6363 82.6192 50.6574C82.7215 57.1098 82.5803 63.5604 82.2099 70.0039C81.836 76.5303 81.2803 83.0461 80.8694 89.5708C80.7353 91.6963 80.6189 93.8235 80.5166 95.9508C77.9113 95.7391 75.2866 95.7515 72.6655 96.0213C67.7724 96.5223 62.957 97.824 58.482 99.8649C58.4432 99.8755 58.4044 99.8843 58.3638 99.8949C53.5025 101.197 48.8564 103.34 44.7889 106.312C43.9387 106.933 45.3039 108.263 46.0765 107.882C46.357 107.744 46.6374 107.607 46.9196 107.473C46.9055 107.485 46.8914 107.497 46.8773 107.511C46.6709 107.702 46.461 107.894 46.2494 108.09C43.1061 109.647 40.1304 111.551 37.451 113.812C36.9907 114.2 36.5391 114.6 36.0964 115.008C35.7118 115.362 35.8388 115.893 36.181 116.234C36.4809 116.537 37.1865 116.828 37.571 116.474C39.446 114.747 41.4798 113.207 43.6317 111.854C43.57 112.15 43.5383 112.454 43.5418 112.77C43.5506 113.385 44.4908 114.064 45.0746 113.764C53.3896 109.508 62.4913 106.871 71.78 105.933C76.1972 105.488 80.6444 105.423 85.0727 105.739C88.3165 106.372 91.5233 107.197 94.6789 108.178C100.002 109.834 105.19 111.903 110.268 114.202C110.9 114.488 111.528 114.777 112.156 115.07C112.579 115.267 113.173 115.135 113.311 114.648C113.745 113.11 112.771 111.912 111.536 111.044C111.258 110.542 110.889 110.078 110.485 109.66C110.963 109.924 111.439 110.194 111.91 110.471C113.988 111.852 116.04 113.276 118.081 114.708C118.671 115.123 119.262 115.539 119.853 115.955C120.197 116.199 120.795 116.285 121.102 115.941C121.393 115.613 121.278 115.064 120.943 114.794C118.359 112.712 115.627 110.82 112.768 109.134C110.489 107.619 108.18 106.151 105.814 104.774C100.678 101.786 95.2645 99.184 89.5266 97.5789C88.35 97.2508 87.1629 96.9668 85.9706 96.7251C86.3463 93.4513 86.565 90.1581 86.5844 86.8614C86.6003 83.9757 86.4539 81.0917 86.2193 78.2166C85.7289 72.2052 85.0392 66.2238 84.9316 60.186C84.8981 58.3075 84.9052 56.4272 84.9475 54.5486C84.9616 53.8854 84.9881 53.2204 85.0304 52.5572C85.4273 53.007 85.8735 53.4127 86.3463 53.776C88.9551 55.7763 92.3964 56.3919 95.6085 56.2561C99.5437 56.0902 103.415 54.9614 106.836 53.0122C110.281 51.049 113.066 48.1862 115.553 45.1364C118.26 41.815 120.785 38.3366 123.374 34.9235C123.788 34.3784 124.203 33.8316 124.618 33.2866C125.062 33.0273 125.507 32.798 125.963 32.604C126.353 32.4382 126.75 32.2935 127.154 32.1648C127.482 32.0607 127.62 31.7467 127.537 31.4257ZM88.6922 51.7175C88.657 51.6981 88.5441 51.6382 88.5106 51.6188C88.4118 51.5641 88.3148 51.5094 88.2178 51.4547C87.8297 51.2325 87.4505 50.9926 87.0818 50.7403C86.9883 50.6768 86.8984 50.6081 86.8066 50.5428C87.364 50.093 87.9444 49.6697 88.5458 49.2763C88.9057 49.0399 89.2708 48.8142 89.643 48.5972C89.8282 48.4879 90.0152 48.382 90.2039 48.2762C90.2974 48.2233 90.3926 48.1721 90.4879 48.121L90.5355 48.0945C90.569 48.0769 90.6025 48.0592 90.6343 48.0416C91.518 47.5777 92.4194 47.1526 93.3331 46.7504C95.1675 46.4664 96.9879 46.1013 98.7694 45.5721C101.579 44.7378 104.31 43.4466 106.568 41.554C107.802 40.5203 108.899 39.3015 109.75 37.9309C110.004 37.5217 109.748 37.0296 109.414 36.7615C109.113 36.5181 108.457 36.2746 108.123 36.6168C106.934 37.8445 105.573 38.8852 104.116 39.7742C103.752 39.9965 103.382 40.2099 103.008 40.4145C102.96 40.441 102.915 40.4657 102.867 40.4921C102.865 40.4939 102.863 40.4939 102.862 40.4956L102.863 40.4939C102.862 40.4956 102.86 40.4956 102.858 40.4974C102.846 40.5045 102.833 40.5133 102.823 40.5221C102.749 40.5697 102.653 40.605 102.579 40.6438C102.389 40.7426 102.197 40.8396 102.006 40.9366C101.232 41.3229 100.445 41.681 99.6496 42.0232C97.2313 43.0674 94.7495 43.967 92.3364 45.0271C90.943 45.2352 89.5424 45.3993 88.1419 45.5545C87.6639 45.6074 87.3288 46.0431 87.5157 46.5193C87.6198 46.7822 87.8297 47.0221 88.0872 47.172C87.3358 47.6165 86.6073 48.098 85.9088 48.6201C85.8224 48.5372 85.7377 48.4543 85.653 48.3697C86.3233 45.8014 87.6427 43.5101 89.3096 41.464C89.8582 40.829 90.4297 40.2152 91.0276 39.6331C94.021 36.7191 97.5435 34.4208 101.362 32.7927C102.646 32.2794 103.961 31.8455 105.294 31.498C108.116 30.7625 110.998 30.415 113.935 30.4555C115.405 30.4767 116.678 30.5825 118.141 30.8101C118.867 30.923 119.59 31.0623 120.307 31.2281C120.649 31.3075 120.987 31.3922 121.326 31.4821C121.734 31.5915 121.926 31.6479 122.234 31.7432C122.469 31.8155 122.702 31.8931 122.933 31.9725C121.033 33.1384 119.393 34.7065 117.943 36.4351C115.698 39.111 113.87 42.1043 111.789 44.9036C109.716 47.6888 107.393 50.3011 104.25 51.9116C103.535 52.2767 102.678 52.6154 101.867 52.8711C101.082 53.1181 100.136 53.3386 99.4238 53.4462C97.637 53.7125 95.8519 53.7108 94.1885 53.4673C93.424 53.3555 92.6671 53.1971 91.9219 52.9928C91.8761 52.9805 91.8285 52.9664 91.7826 52.954C91.7544 52.947 91.735 52.9417 91.7191 52.9364C91.7173 52.9364 91.7156 52.9346 91.712 52.9346C90.853 52.6736 90.0116 52.3526 89.2002 51.968C89.0274 51.8886 88.8598 51.8022 88.6922 51.7175ZM68.4586 47.3837C63.278 46.8739 58.0904 46.3359 52.9716 45.3587C51.6839 45.1135 50.3998 44.8401 49.1263 44.5332C48.6112 44.4097 48.0962 44.2792 47.5846 44.1416C47.3465 44.0781 47.1084 44.0128 46.8703 43.9458C46.7433 43.9105 46.6163 43.8735 46.4893 43.8382C46.4416 43.8241 46.394 43.81 46.3464 43.7977C46.3093 43.7871 46.2846 43.78 46.267 43.7747C46.2529 43.7712 46.2388 43.7659 46.2194 43.7606C44.235 43.1679 42.2806 42.4747 40.3721 41.6686C39.4248 41.2682 38.49 40.8414 37.571 40.3845C37.3487 40.2734 37.1265 40.1623 36.906 40.0494L36.7525 39.97C36.742 39.9647 36.7331 39.9594 36.7173 39.9506C36.6008 39.8889 36.4844 39.8271 36.368 39.7636C35.9041 39.5131 35.4437 39.2539 34.9886 38.9875C34.112 38.4742 33.2512 37.9309 32.4134 37.3541C31.7948 36.9312 31.189 36.49 30.5965 36.0312C30.5066 35.9607 30.4149 35.8901 30.3249 35.8195C30.3126 35.8107 30.3002 35.8001 30.2826 35.7843C30.2191 35.7331 30.1556 35.682 30.0938 35.6308C28.5434 34.3679 27.0917 32.9797 25.7952 31.4574C25.7652 31.4222 25.6435 31.2775 25.6276 31.2581C25.5553 31.1717 25.4848 31.0852 25.4142 30.9971C25.2519 30.7977 25.0932 30.5949 24.938 30.392C24.6345 29.9971 24.3416 29.5942 24.0595 29.1838C24.0578 29.182 24.056 29.1785 24.0542 29.1767C28.6862 29.5471 33.4047 29.5665 37.7703 27.8256C40.2733 26.8272 42.5522 25.372 44.9811 24.2184C46.1788 23.6487 47.4135 23.1548 48.7029 22.8337C49.9994 22.5109 51.3311 22.3787 52.6647 22.3857C55.3828 22.4016 58.131 23.056 60.6586 23.9309C63.2586 24.8305 65.7863 25.9664 68.2487 27.1906C68.3951 27.2629 68.5397 27.337 68.6844 27.4093C68.7655 27.4499 68.8449 27.4922 68.926 27.5328C68.9348 27.5381 68.9684 27.5539 68.993 27.568C69.27 27.7144 69.5487 27.8626 69.8238 28.0161C70.3901 28.3318 70.9474 28.6634 71.4925 29.0144C72.034 29.3637 72.5596 29.7359 73.0694 30.1292C73.0853 30.1416 73.1664 30.2068 73.1541 30.1962C73.1911 30.2262 73.2282 30.2562 73.2652 30.288C73.6505 30.6045 74.0218 30.9376 74.3782 31.2863C75.2002 32.0942 75.8035 32.8597 76.449 33.8863C76.5884 34.1086 76.7242 34.3343 76.853 34.5619C76.9218 34.6818 76.9906 34.8035 77.0576 34.927L77.0611 34.9341C77.0646 34.9411 77.0664 34.9464 77.0735 34.957C77.1176 35.0399 77.1599 35.121 77.2022 35.2039C77.4527 35.689 77.6855 36.1811 77.9095 36.6786C79.4494 40.1182 80.4989 43.8453 82.5803 46.9903C79.3436 43.8647 75.6623 41.1871 71.7042 39.0581C66.707 36.3716 61.2883 34.4843 55.6827 33.5794C52.5676 33.0767 49.3979 32.8721 46.2423 32.9832H46.1859V32.985H46.1788C45.6973 33.0026 45.4309 33.4277 45.6038 33.8704C45.7925 34.3555 46.3464 34.6907 46.8597 34.6854C52.0843 34.6254 57.2243 35.779 62.0539 37.617C64.541 38.5642 66.961 39.6807 69.3247 40.9049C69.3405 40.9137 69.5205 41.0054 69.4658 40.9789C69.5222 41.0089 69.621 41.0601 69.6316 41.0671C69.7656 41.1377 69.9015 41.21 70.0355 41.2806C70.3389 41.4429 70.6405 41.6051 70.9422 41.7692C71.5454 42.099 72.1451 42.4359 72.7431 42.7764C73.9055 43.4413 75.0573 44.1275 76.2003 44.8278C78.1247 46.0078 80.0227 47.2284 81.9118 48.4632C81.9736 48.5249 82.0371 48.5866 82.0988 48.6484C80.7194 48.4543 79.3295 48.3838 77.936 48.3838C74.7839 47.9975 71.6195 47.6941 68.4586 47.3837ZM106.426 38.8199L106.411 38.8358L106.416 38.8305C106.421 38.8252 106.425 38.8217 106.428 38.8164C106.428 38.8182 106.426 38.8199 106.426 38.8199ZM71.9035 23.3012C71.8964 23.2959 71.8929 23.2941 71.8894 23.2906C71.9193 23.3135 71.9335 23.3241 71.9035 23.3012ZM61.8493 19.5599C64.3663 19.6993 66.7635 20.3149 69.0513 21.4456C69.0654 21.4526 69.0777 21.4579 69.0901 21.465C69.0971 21.4685 69.1077 21.4738 69.1236 21.4826C69.1853 21.5143 69.2453 21.5479 69.3053 21.5814C69.7134 21.8054 70.113 22.0449 70.5029 22.2993C70.734 22.4492 70.9616 22.6044 71.1873 22.7649C71.3143 22.8549 71.4396 22.9466 71.563 23.0401C71.6177 23.0807 71.6742 23.123 71.7288 23.1654C71.7465 23.1777 71.8259 23.2394 71.877 23.28C71.8894 23.2906 71.9811 23.3647 71.9952 23.3753C72.0481 23.4194 72.1028 23.4635 72.1557 23.5076C72.2757 23.6063 72.3938 23.7069 72.512 23.8092C72.7484 24.0138 72.9795 24.2219 73.207 24.4354C73.6497 24.8516 74.0766 25.2856 74.4876 25.7336C74.6795 25.9436 74.8683 26.1564 75.0538 26.3721C75.0714 26.3933 75.1032 26.4303 75.1085 26.4374L75.2425 26.5979C75.3537 26.732 75.463 26.8678 75.5724 27.0054C75.964 27.4975 76.3379 28.002 76.6995 28.517C77.4315 29.563 78.1018 30.6513 78.7174 31.7679C80.8358 35.6114 82.2611 39.9206 82.9208 44.3109C82.8696 44.2051 82.8167 44.101 82.7673 43.9952C81.8007 41.9403 81.0634 39.7866 80.1938 37.691C79.3207 35.5902 78.3029 33.4965 76.8459 31.7344C75.1244 29.6494 72.9318 28.0478 70.5788 26.7408C68.1376 25.3843 65.5728 24.2043 62.9799 23.1706C60.3023 22.1053 57.5083 21.2233 54.6402 20.867C53.7442 20.7559 52.8446 20.6959 51.945 20.6959C52.6153 20.5283 53.2891 20.3731 53.9682 20.2338C56.554 19.7028 59.2069 19.4135 61.8493 19.5599ZM37.9767 25.0757C38.8639 24.8164 39.7476 24.5394 40.6278 24.2554C40.051 24.5659 39.4725 24.8746 38.8904 25.1709C36.4421 26.4162 33.8703 27.2417 31.1328 27.5239C28.4128 27.8044 25.6647 27.6756 22.9501 27.4375C22.9165 27.3793 22.8795 27.3229 22.846 27.2629C22.7895 27.1641 22.7331 27.0671 22.6784 26.9683L22.5832 26.799C22.5091 26.6667 22.5796 26.7937 22.5373 26.7143L22.4473 26.5397C27.6279 27.5151 32.9637 26.5397 37.9767 25.0757ZM52.386 46.8721C52.3757 46.8702 52.3656 46.8673 52.356 46.8633C56.861 47.7664 61.4312 48.3115 66.0015 48.7824C62.509 48.703 59.0976 48.3132 55.6051 47.6094C54.5257 47.3921 53.4523 47.1462 52.386 46.8721ZM71.7941 97.9616C74.6746 97.5648 77.5656 97.4766 80.4407 97.6741C80.4213 98.1327 80.3984 98.5913 80.3808 99.0499C76.9129 98.4573 73.394 98.1856 69.8838 98.2685C70.5188 98.1521 71.1556 98.0498 71.7941 97.9616ZM103.174 106.444C104.521 107.201 105.825 108.037 107.081 108.94C105.954 108.504 104.816 108.095 103.669 107.714C103.396 107.561 103.123 107.407 102.848 107.256C102.939 106.744 102.472 106.312 102.054 106.123C102.05 106.121 102.048 106.121 102.045 106.12C100.105 105.247 98.1291 104.455 96.1253 103.742C97.8363 104.232 99.5279 104.788 101.2 105.409C101.869 105.735 102.526 106.081 103.174 106.444ZM80.2661 102.227C80.2626 102.341 80.2573 102.456 80.2538 102.569C80.2449 102.848 80.4407 103.103 80.6894 103.289C80.5589 103.271 80.4301 103.252 80.2996 103.234C77.3539 102.839 74.38 102.615 71.4078 102.595C74.3341 102.064 77.3028 101.987 80.2661 102.227ZM81.9436 103.474C82.0953 103.363 82.187 103.181 82.1958 102.934C82.2011 102.765 82.2082 102.597 82.2135 102.428C86.3216 102.941 90.3944 103.999 94.3014 105.224C94.372 105.247 94.4426 105.269 94.5149 105.292C92.4287 104.874 90.3261 104.543 88.2125 104.299C87.0994 104.171 85.9838 104.067 84.8664 103.987C83.8944 103.798 82.9208 103.627 81.9436 103.474ZM103.188 109.268C103.527 109.46 103.864 109.656 104.199 109.854C103.008 109.376 101.812 108.914 100.607 108.471C101.473 108.72 102.334 108.986 103.188 109.268ZM60.5158 102.738C62.8794 102.191 65.2748 101.775 67.6842 101.482C67.3473 101.595 67.0104 101.712 66.6753 101.833C66.2643 101.983 66.169 102.405 66.3049 102.768C65.7439 102.811 65.183 102.86 64.6239 102.918C60.6075 103.338 56.6175 104.155 52.7775 105.419C53.1797 105.137 53.5889 104.864 53.9999 104.596C56.1395 103.867 58.3144 103.248 60.5158 102.738ZM46.4698 110.877C46.7662 110.521 47.096 110.191 47.3994 109.891C47.5088 109.783 47.6199 109.679 47.731 109.573C48.3466 109.272 48.9693 108.984 49.5972 108.711C54.0281 106.79 58.7342 105.532 63.5179 104.888C65.37 104.638 67.2291 104.479 69.0936 104.407C65.7739 104.83 62.4825 105.463 59.2422 106.303C54.8589 107.439 50.5744 108.967 46.4698 110.877ZM95.8748 101.521C91.5074 100.103 86.9266 99.3304 82.3352 99.2546C82.3546 98.7871 82.374 98.3215 82.3951 97.854C84.219 98.0639 86.034 98.3885 87.8315 98.8277C90.5814 99.4997 93.2643 100.422 95.8748 101.521ZM82.478 96.1536C82.7285 91.1953 83.0636 86.2405 83.4252 81.2875C83.6016 78.8604 83.7763 76.4333 83.9333 74.0061C83.9773 74.4701 84.0214 74.934 84.0638 75.3979C84.3266 78.236 84.5489 81.0776 84.6194 83.9263C84.7005 87.1895 84.5806 90.4527 84.2825 93.7036C84.2014 94.5926 84.1043 95.4816 84.0003 96.3688C83.494 96.2895 82.986 96.2171 82.478 96.1536ZM90.278 54.0723C90.2639 54.0671 90.2462 54.0618 90.2233 54.0547C90.1316 54.0247 90.0399 53.9965 89.9499 53.9665C89.6044 53.8506 89.2642 53.7193 88.9304 53.5732C88.7734 53.5044 88.6182 53.4285 88.4629 53.3544C88.4453 53.3456 88.4312 53.3403 88.4206 53.335C88.41 53.3298 88.3994 53.3227 88.3836 53.3139C88.3289 53.2839 88.276 53.2539 88.2213 53.2239C87.9038 53.044 87.5969 52.8464 87.3023 52.6312C87.2935 52.6242 87.267 52.603 87.2388 52.5819C88.253 53.1886 89.3255 53.7019 90.442 54.1147L90.338 54.0882C90.3115 54.0812 90.2939 54.0759 90.278 54.0723Z" fill="#DA291C"/>
<path d="M69.4534 40.9716C69.4605 40.9751 69.4622 40.9751 69.4657 40.9786C69.4269 40.9574 69.4093 40.9486 69.4534 40.9716Z" fill="#DA291C"/>
</svg>
