<svg width="128" height="128" viewBox="0 0 128 128" fill="none" xmlns="http://www.w3.org/2000/svg">
<path d="M88 63.5599C87.9929 70.2558 85.4981 76.7101 81 81.6699C78.7249 84.2006 75.9588 86.242 72.87 87.6699C69.728 89.096 66.3203 89.8423 62.87 89.86C57.7101 89.8797 52.6621 88.356 48.3749 85.4846C44.0877 82.6133 40.7571 78.5255 38.8111 73.7465C36.8652 68.9676 36.3927 63.7159 37.4546 58.6664C38.5164 53.6169 41.064 49.0003 44.77 45.4099C47.7543 42.5056 51.4058 40.3779 55.404 39.2135C59.4023 38.0492 63.6252 37.8837 67.7023 38.7317C71.7794 39.5797 75.5861 41.4152 78.7885 44.0773C81.9909 46.7393 84.4912 50.1465 86.07 53.9999C87.3332 57.0295 87.9889 60.2776 88 63.5599ZM85.5 63.5599C85.4972 59.113 84.1619 54.7689 81.6665 51.0882C79.171 47.4074 75.6299 44.5588 71.5 42.9099C67.4372 41.2984 62.9874 40.9294 58.7147 41.8498C54.4421 42.7703 50.5389 44.9386 47.5 48.08C44.5392 51.1274 42.5397 54.978 41.75 59.1528C40.9603 63.3277 41.4154 67.6425 43.0585 71.5608C44.7017 75.4791 47.4605 78.8279 50.9918 81.1906C54.5232 83.5534 58.6712 84.8259 62.92 84.8499C68.6269 84.8908 74.15 82.8338 78.44 79.07C80.6336 77.1231 82.3918 74.7354 83.5997 72.0628C84.8076 69.3902 85.4381 66.4928 85.45 63.5599H85.5Z" fill="#DA291C"/>
<path d="M64.17 16.0001C64.9795 16.9946 65.421 18.2379 65.42 19.5201C65.42 20.7001 65.42 21.8701 65.31 23.0501C65.2 24.2301 65.12 25.3901 64.93 26.5701C64.7631 27.7604 64.509 28.9369 64.17 30.0901C64.0705 30.4206 63.8444 30.6985 63.541 30.8633C63.2377 31.0281 62.8815 31.0665 62.55 30.9701C62.3415 30.9087 62.1516 30.796 61.9979 30.6422C61.8442 30.4885 61.7314 30.2987 61.67 30.0901C61.3311 28.9369 61.077 27.7604 60.91 26.5701C60.72 25.3901 60.61 24.2201 60.53 23.0501C60.45 21.8801 60.42 20.7001 60.42 19.5201C60.4191 18.2379 60.8606 16.9946 61.67 16.0001C61.9416 15.6701 62.3325 15.4608 62.7577 15.4177C63.1829 15.3746 63.6078 15.5013 63.94 15.7701L64.17 16.0001Z" fill="#DA291C"/>
<path d="M39.9999 21.8099C41.2005 22.2595 42.2055 23.1159 42.8399 24.2299C43.4299 25.2299 43.9899 26.2799 44.5099 27.3399C45.0299 28.3999 45.5099 29.4699 45.9399 30.5799C46.3901 31.6923 46.761 32.8352 47.0499 33.9999C47.1123 34.2731 47.0854 34.559 46.9732 34.8158C46.861 35.0725 46.6694 35.2866 46.4266 35.4264C46.1839 35.5663 45.9026 35.6246 45.6242 35.5928C45.3459 35.5611 45.085 35.4409 44.88 35.2499C44.0113 34.4212 43.2057 33.5287 42.47 32.5799C41.71 31.6499 41.0299 30.6899 40.3699 29.7199C39.7099 28.7499 39.0999 27.7199 38.5199 26.7199C37.8764 25.6118 37.6361 24.3151 37.8399 23.0499C37.9064 22.6283 38.1375 22.2503 38.4825 21.999C38.8276 21.7477 39.2583 21.6437 39.6799 21.7099C39.7897 21.7325 39.8969 21.766 39.9999 21.8099Z" fill="#DA291C"/>
<path d="M22 38.92C23.2651 38.7162 24.5618 38.9565 25.67 39.6C26.67 40.18 27.67 40.8 28.67 41.45C29.67 42.1 30.6 42.8 31.53 43.55C32.4733 44.2993 33.3591 45.1183 34.18 46C34.4224 46.2469 34.5583 46.579 34.5583 46.925C34.5583 47.271 34.4224 47.6032 34.18 47.85C34.0206 47.9962 33.8283 48.1017 33.6193 48.1574C33.4103 48.2132 33.191 48.2175 32.98 48.17C31.7933 47.8643 30.6303 47.4733 29.5 47C28.39 46.58 27.32 46.09 26.26 45.57C25.2 45.05 24.17 44.49 23.15 43.9C22.0359 43.2656 21.1796 42.2606 20.73 41.06C20.5834 40.6633 20.5987 40.2249 20.7727 39.8394C20.9468 39.4539 21.2655 39.1524 21.66 39C21.7686 38.9564 21.8833 38.9294 22 38.92Z" fill="#DA291C"/>
<path d="M14.92 62.75C15.9145 61.9406 17.1578 61.4991 18.44 61.5C19.62 61.5 20.79 61.5 21.97 61.61C23.15 61.72 24.31 61.8 25.49 61.99C26.6804 62.157 27.8568 62.411 29.01 62.75C29.3406 62.8496 29.6184 63.0756 29.7832 63.379C29.948 63.6824 29.9864 64.0385 29.89 64.37C29.8286 64.5786 29.7159 64.7684 29.5622 64.9221C29.4084 65.0759 29.2186 65.1886 29.01 65.25C27.8568 65.589 26.6804 65.843 25.49 66.01C24.31 66.2 23.14 66.31 21.97 66.39C20.8 66.47 19.62 66.5 18.44 66.5C17.1578 66.5009 15.9145 66.0594 14.92 65.25C14.5958 64.979 14.3904 64.5921 14.3474 64.1718C14.3044 63.7515 14.4274 63.331 14.69 63L14.92 62.75Z" fill="#DA291C"/>
<path d="M20.73 86.9201C21.1796 85.7195 22.0359 84.7145 23.15 84.0801C24.15 83.4901 25.2 82.9301 26.26 82.4101C27.32 81.8901 28.39 81.4101 29.5 80.9801C30.6156 80.5295 31.7618 80.1585 32.93 79.8701C33.1959 79.8189 33.4711 79.8513 33.7178 79.9629C33.9645 80.0745 34.1705 80.2599 34.3076 80.4934C34.4447 80.7269 34.506 80.9972 34.4831 81.267C34.4603 81.5368 34.3543 81.7929 34.18 82.0001C33.3512 82.8688 32.4587 83.6744 31.51 84.4101C30.58 85.1601 29.62 85.8501 28.65 86.5101C27.68 87.1701 26.65 87.7801 25.65 88.3601C24.5418 89.0037 23.2451 89.2439 21.98 89.0401C21.5583 88.9737 21.1803 88.7425 20.929 88.3975C20.6778 88.0525 20.5738 87.6218 20.64 87.2001C20.6617 87.1043 20.6918 87.0106 20.73 86.9201Z" fill="#DA291C"/>
<path d="M37.8399 104.94C37.6361 103.675 37.8764 102.378 38.5199 101.27C39.0999 100.27 39.7199 99.27 40.3699 98.27C41.0199 97.27 41.71 96.34 42.47 95.41C43.2057 94.4612 44.0113 93.5687 44.88 92.74C45.1333 92.5041 45.4691 92.3771 45.8152 92.3865C46.1612 92.3958 46.4897 92.5407 46.7299 92.79C46.8762 92.9493 46.9816 93.1417 47.0374 93.3507C47.0931 93.5596 47.0974 93.779 47.0499 93.99C46.7615 95.1581 46.3906 96.3043 45.9399 97.42C45.5199 98.53 45.0299 99.6 44.5099 100.66C43.9899 101.72 43.4299 102.75 42.8399 103.77C42.2055 104.884 41.2005 105.74 39.9999 106.19C39.8023 106.266 39.5917 106.302 39.3802 106.296C39.1687 106.29 38.9603 106.243 38.7672 106.156C38.574 106.07 38.3997 105.946 38.2543 105.792C38.109 105.639 37.9953 105.458 37.9199 105.26C37.8782 105.158 37.8512 105.05 37.8399 104.94Z" fill="#DA291C"/>
<path d="M61.67 112C60.8606 111.005 60.4191 109.762 60.42 108.48C60.42 107.3 60.42 106.13 60.53 104.95C60.64 103.77 60.72 102.61 60.91 101.43C61.077 100.24 61.3311 99.0632 61.67 97.91C61.7162 97.7436 61.7948 97.5879 61.9014 97.452C62.0079 97.3161 62.1402 97.2026 62.2908 97.1181C62.4413 97.0335 62.6071 96.9795 62.7786 96.9592C62.9501 96.939 63.1239 96.9528 63.29 97C63.4986 97.0614 63.6885 97.1741 63.8422 97.3278C63.9959 97.4816 64.1087 97.6714 64.17 97.88C64.509 99.0332 64.7631 100.21 64.93 101.4C65.12 102.58 65.23 103.75 65.31 104.92C65.39 106.09 65.42 107.27 65.42 108.45C65.4279 109.742 64.986 110.998 64.17 112C63.8985 112.33 63.5076 112.539 63.0824 112.582C62.6572 112.625 62.2323 112.499 61.9 112.23L61.67 112Z" fill="#DA291C"/>
<path d="M85.84 106.19C84.6394 105.74 83.6345 104.884 83 103.77C82.41 102.77 81.85 101.77 81.33 100.66C80.81 99.5501 80.33 98.5301 79.9 97.4201C79.4499 96.3077 79.079 95.1648 78.79 94.0001C78.71 93.7183 78.7268 93.4178 78.8376 93.1467C78.9484 92.8755 79.1469 92.6493 79.4014 92.5042C79.6559 92.3592 79.9516 92.3036 80.2414 92.3463C80.5312 92.3891 80.7983 92.5277 81 92.7401C81.8687 93.5688 82.6743 94.4613 83.41 95.4101C84.16 96.3401 84.85 97.3001 85.51 98.2701C86.17 99.2401 86.77 100.27 87.36 101.27C88.0036 102.378 88.2439 103.675 88.04 104.94C87.9736 105.362 87.7425 105.74 87.3975 105.991C87.0524 106.242 86.6217 106.346 86.2 106.28C86.0771 106.263 85.9563 106.233 85.84 106.19Z" fill="#DA291C"/>
<path d="M103.86 89.08C102.595 89.2838 101.298 89.0436 100.19 88.4C99.1901 87.82 98.1901 87.2 97.1901 86.55C96.1901 85.9 95.2601 85.2 94.3301 84.45C93.3799 83.7015 92.4873 82.8825 91.6601 82C91.4176 81.7532 91.2817 81.421 91.2817 81.075C91.2817 80.729 91.4176 80.3969 91.6601 80.15C91.8194 80.0038 92.0118 79.8983 92.2207 79.8426C92.4297 79.7869 92.6491 79.7826 92.8601 79.83C94.0467 80.1357 95.2097 80.5268 96.34 81C97.45 81.42 98.5201 81.91 99.5801 82.43C100.64 82.95 101.67 83.51 102.69 84.1C103.804 84.7345 104.66 85.7394 105.11 86.94C105.186 87.1377 105.222 87.3482 105.216 87.5598C105.21 87.7713 105.163 87.9796 105.076 88.1728C104.99 88.366 104.866 88.5403 104.712 88.6856C104.559 88.831 104.378 88.9446 104.18 89.02C104.077 89.055 103.969 89.0752 103.86 89.08Z" fill="#DA291C"/>
<path d="M110.92 65.25C109.926 66.0594 108.682 66.5009 107.4 66.5C106.22 66.5 105.05 66.5 103.87 66.39C102.69 66.28 101.53 66.2 100.35 66.01C99.1597 65.843 97.9832 65.589 96.83 65.25C96.5087 65.1402 96.2426 64.9099 96.0877 64.6077C95.9329 64.3055 95.9014 63.9549 96 63.63C96.0614 63.4214 96.1742 63.2316 96.3279 63.0779C96.4816 62.9241 96.6715 62.8114 96.88 62.75C98.0332 62.411 99.2097 62.157 100.4 61.99C101.58 61.8 102.75 61.69 103.92 61.61C105.09 61.53 106.27 61.5 107.45 61.5C108.732 61.4991 109.976 61.9406 110.97 62.75C111.3 63.0215 111.509 63.4125 111.552 63.8376C111.596 64.2628 111.469 64.6878 111.2 65.02C111.112 65.1033 111.019 65.1802 110.92 65.25Z" fill="#DA291C"/>
<path d="M105.11 41.0801C104.66 42.2807 103.804 43.2856 102.69 43.9201C101.69 44.5101 100.69 45.0701 99.58 45.5901C98.47 46.1101 97.45 46.5901 96.34 47.0201C95.2243 47.4707 94.0781 47.8416 92.91 48.1301C92.6441 48.1813 92.3689 48.1489 92.1222 48.0372C91.8755 47.9256 91.6694 47.7403 91.5324 47.5068C91.3953 47.2732 91.334 47.003 91.3568 46.7331C91.3797 46.4633 91.4856 46.2072 91.66 46.0001C92.4888 45.1314 93.3812 44.3258 94.33 43.5901C95.26 42.8401 96.22 42.1501 97.19 41.4901C98.16 40.8301 99.19 40.2201 100.19 39.6401C101.298 38.9965 102.595 38.7562 103.86 38.9601C104.282 39.0265 104.66 39.2576 104.911 39.6027C105.162 39.9477 105.266 40.3784 105.2 40.8001C105.178 40.8959 105.148 40.9895 105.11 41.0801Z" fill="#DA291C"/>
<path d="M88 23.0601C88.2038 24.3252 87.9636 25.6219 87.32 26.7301C86.73 27.7301 86.12 28.7301 85.47 29.7301C84.82 30.7301 84.12 31.6601 83.37 32.5901C82.6471 33.5374 81.8549 34.4299 81 35.2601C80.7532 35.5025 80.421 35.6384 80.075 35.6384C79.729 35.6384 79.3969 35.5025 79.15 35.2601C79.0038 35.1007 78.8983 34.9084 78.8426 34.6994C78.7869 34.4904 78.7826 34.2711 78.83 34.0601C79.1185 32.892 79.4894 31.7457 79.94 30.6301C80.36 29.5201 80.85 28.4501 81.37 27.3901C81.89 26.3301 82.45 25.3001 83.04 24.2801C83.6745 23.166 84.6794 22.3097 85.88 21.8601C86.0776 21.7844 86.2883 21.7485 86.4998 21.7543C86.7113 21.7601 86.9196 21.8075 87.1128 21.8939C87.306 21.9803 87.4803 22.1039 87.6256 22.2577C87.771 22.4114 87.8846 22.5924 87.96 22.7901C87.9839 22.8782 87.9974 22.9688 88 23.0601Z" fill="#DA291C"/>
<path d="M73.36 66.6401C73.614 68.0649 73.5163 69.5302 73.0754 70.9087C72.6345 72.2872 71.8637 73.5372 70.83 74.5501C69.7919 75.5852 68.5574 76.4025 67.199 76.9537C65.8407 77.505 64.3858 77.7791 62.92 77.7601C61.472 77.7397 60.0433 77.4261 58.7199 76.8383C57.3965 76.2505 56.2059 75.4007 55.22 74.3401C54.2605 73.3125 53.5223 72.0989 53.051 70.7744C52.5797 69.4499 52.3853 68.0428 52.48 66.6401C52.4978 66.442 52.5926 66.2587 52.7441 66.1297C52.8955 66.0007 53.0915 65.9362 53.29 65.9501C53.4668 65.9636 53.6332 66.0393 53.7595 66.1638C53.8858 66.2882 53.9639 66.4535 53.98 66.6301C54.0825 67.7994 54.3941 68.9409 54.9 70.0001C55.3979 71.0078 56.0757 71.916 56.9 72.6801C58.5366 74.1742 60.6843 74.9832 62.9 74.9401C65.0746 74.8959 67.1485 74.0147 68.69 72.4801C70.2641 70.8811 71.3558 68.871 71.84 66.6801C71.8896 66.4829 72.0152 66.3133 72.1895 66.2083C72.3637 66.1034 72.5724 66.0717 72.77 66.1201C72.906 66.1458 73.0325 66.2076 73.1363 66.2991C73.2402 66.3906 73.3174 66.5084 73.36 66.6401Z" fill="#DA291C"/>
<path d="M49.4 58.06C49.1396 57.4037 49.0813 56.6845 49.2328 55.9949C49.3843 55.3053 49.7385 54.6767 50.25 54.19C50.7569 53.6878 51.3602 53.2934 52.0236 53.0304C52.6869 52.7675 53.3966 52.6415 54.11 52.66C54.8067 52.6839 55.491 52.8507 56.1206 53.15C56.7502 53.4493 57.3116 53.8748 57.77 54.4C58.2036 54.8954 58.5233 55.4799 58.7065 56.1123C58.8896 56.7446 58.9318 57.4095 58.83 58.06C58.7911 58.258 58.6761 58.4329 58.5097 58.5469C58.3432 58.661 58.1387 58.7052 57.94 58.67C57.7964 58.645 57.6631 58.5788 57.5566 58.4793C57.45 58.3799 57.3747 58.2515 57.34 58.11C57.1589 57.3172 56.7104 56.611 56.07 56.11C55.4939 55.684 54.7845 55.4783 54.07 55.53C53.4137 55.5751 52.7959 55.8556 52.33 56.32C51.7844 56.8543 51.2921 57.4404 50.86 58.07L50.77 58.19C50.6858 58.3043 50.5736 58.3951 50.4443 58.4536C50.315 58.5122 50.1728 58.5367 50.0314 58.5246C49.8899 58.5126 49.7539 58.4645 49.6364 58.3849C49.5188 58.3053 49.4237 58.1969 49.36 58.07L49.4 58.06Z" fill="#DA291C"/>
<path d="M67 58.06C66.7421 57.4025 66.6862 56.6831 66.8394 55.9937C66.9926 55.3043 67.3479 54.6763 67.86 54.19C68.3662 53.6868 68.9694 53.2918 69.6329 53.0288C70.2964 52.7658 71.0065 52.6403 71.72 52.66C72.4154 52.6829 73.0986 52.8493 73.7267 53.1487C74.3548 53.4481 74.9143 53.8741 75.37 54.4C75.8036 54.8953 76.1233 55.4798 76.3065 56.1122C76.4896 56.7446 76.5318 57.4095 76.43 58.06C76.3935 58.2572 76.2805 58.432 76.1156 58.5462C75.9508 58.6605 75.7475 58.705 75.55 58.67C75.4045 58.6468 75.2691 58.5814 75.1607 58.4818C75.0522 58.3822 74.9754 58.2529 74.94 58.11C74.7631 57.318 74.3179 56.6115 73.68 56.11C73.1039 55.684 72.3945 55.4783 71.68 55.53C71.0209 55.5754 70.3999 55.8557 69.93 56.32C69.3844 56.8543 68.8921 57.4404 68.46 58.07L68.38 58.19C68.3173 58.2784 68.2377 58.3535 68.1458 58.411C68.0539 58.4685 67.9515 58.5072 67.8446 58.5249C67.7376 58.5425 67.6283 58.5388 67.5228 58.514C67.4173 58.4891 67.3177 58.4435 67.23 58.38C67.1278 58.2941 67.0487 58.1841 67 58.06Z" fill="#DA291C"/>
</svg>
